<svg width="78" height="67" viewBox="0 0 78 67" fill="none" xmlns="http://www.w3.org/2000/svg">
<path d="M0.570312 64.5403C0.570312 46.3803 0.570312 28.2203 0.570312 10.0703C18.9603 10.0703 37.3403 10.0803 55.7303 10.0803C56.0903 10.0803 56.4603 10.1103 56.8203 10.1203C56.8203 16.0603 56.8203 25.5003 56.8203 31.4503C56.6803 31.6203 56.5504 31.7903 56.4004 31.9503C54.6004 33.8503 54.1804 34.2903 52.3704 36.1903C49.8404 38.8303 49.4603 39.4303 46.9303 42.0703C36.2503 42.0703 22.0103 42.0603 11.3303 42.0603C10.3603 42.0603 9.77038 42.7303 9.76038 43.7703C9.76038 48.5203 9.76038 53.2603 9.76038 58.0103C9.76038 59.2403 10.3703 59.8603 11.5903 59.8603C24.8703 59.8603 38.1603 59.8603 51.4403 59.8603C52.6103 59.8603 53.2704 59.2203 53.2704 58.0703C53.2704 53.8603 53.2704 49.6503 53.2704 45.4403C54.4404 44.2103 55.6204 42.9803 56.7904 41.7503C56.7904 48.9703 56.7603 56.1803 56.8203 63.4003C56.8303 65.0103 56.2504 66.0503 54.7504 66.5703C54.5804 66.5803 54.4104 66.5903 54.2404 66.5903C37.3204 66.5903 20.4003 66.5903 3.48035 66.5903C2.34035 66.5903 1.47037 66.1403 0.880371 65.1503C0.830371 65.0603 0.680312 65.0303 0.570312 64.9803C0.570312 64.8803 0.570312 64.7903 0.570312 64.6903C0.600312 64.6803 0.640288 64.6803 0.670288 64.6703C0.640288 64.6203 0.610312 64.5803 0.570312 64.5403ZM21.6204 37.0803C25.3904 37.0803 29.1603 37.0803 32.9403 37.0803C33.1803 37.0803 33.4303 37.1103 33.6703 37.0503C34.2503 36.9203 34.6204 36.5603 34.6204 35.9303C34.6204 35.3403 34.3004 34.9703 33.7404 34.8403C33.5104 34.7903 33.2604 34.7803 33.0204 34.7803C25.4304 34.7803 17.8304 34.7803 10.2404 34.7803C9.98036 34.7803 9.63033 34.7403 9.46033 34.8903C9.14033 35.1703 8.71032 35.5503 8.70032 35.9003C8.69032 36.2503 9.08039 36.6703 9.40039 36.9503C9.58039 37.1103 9.95036 37.0703 10.2404 37.0703C14.0204 37.0803 17.8204 37.0803 21.6204 37.0803ZM21.6003 30.5003C25.3703 30.5003 29.1403 30.5003 32.9203 30.5003C33.1603 30.5003 33.4104 30.5203 33.6504 30.4703C34.2404 30.3403 34.6104 29.9903 34.6104 29.3603C34.6104 28.7303 34.2603 28.3703 33.6703 28.2403C33.4403 28.1903 33.1903 28.2003 32.9403 28.2003C25.4003 28.2003 17.8503 28.2003 10.3103 28.2003C10.0403 28.2003 9.7004 28.1403 9.5304 28.2703C9.1804 28.5503 8.7703 28.9103 8.6803 29.3103C8.5603 29.8403 8.94037 30.2803 9.50037 30.4303C9.75037 30.5003 10.0303 30.4903 10.3003 30.4903C14.0603 30.5003 17.8303 30.5003 21.6003 30.5003Z" fill="#4FC4D8"/>
<path d="M0.570312 2.02966C0.700312 1.92966 0.870317 1.85968 0.950317 1.72968C1.51032 0.869675 2.30032 0.429688 3.33032 0.429688C20.4203 0.429688 37.5103 0.429688 54.6003 0.429688C54.7003 0.429688 54.7904 0.449707 54.8904 0.449707C56.3504 1.04971 56.9303 2.19967 56.9303 3.71967C56.9303 5.82967 56.9303 7.93969 56.9303 10.0597C56.8903 10.0797 56.8503 10.0997 56.8203 10.1197C56.4603 10.1097 56.0903 10.0797 55.7303 10.0797C37.3403 10.0797 18.9603 10.0697 0.570312 10.0697C0.570312 7.3797 0.570312 4.70966 0.570312 2.02966ZM21.6803 6.11969C25.5903 6.11969 29.5103 6.11969 33.4203 6.11969C33.6403 6.11969 33.8603 6.13967 34.0803 6.09967C34.6903 6.00967 35.0803 5.52969 35.0503 4.92969C35.0103 4.30969 34.6603 3.9597 34.0503 3.8797C33.8303 3.8497 33.6104 3.85968 33.3904 3.85968C25.5604 3.85968 17.7304 3.85968 9.90039 3.85968C9.63039 3.85968 9.36034 3.84972 9.10034 3.89972C8.34034 4.03972 7.88035 4.91969 8.36035 5.49969C8.63035 5.82969 9.20038 6.08966 9.64038 6.08966C13.6604 6.13966 17.6703 6.11969 21.6803 6.11969ZM55.4203 4.9397C55.4003 4.3197 54.8403 3.7997 54.2203 3.8197C53.5803 3.8497 53.1004 4.37966 53.1304 5.02966C53.1604 5.63966 53.6704 6.11968 54.2704 6.10968C54.9004 6.09968 55.4303 5.5497 55.4203 4.9397ZM45.7604 4.98969C45.7704 4.36969 45.2303 3.82966 44.6003 3.83966C43.9903 3.84966 43.5003 4.3297 43.4803 4.9397C43.4603 5.5897 43.9403 6.09969 44.5903 6.11969C45.2303 6.12969 45.7504 5.61969 45.7604 4.98969ZM50.5903 4.95972C50.5903 4.34972 50.0303 3.79969 49.4203 3.80969C48.7903 3.81969 48.2903 4.34969 48.3103 4.99969C48.3203 5.60969 48.8103 6.09968 49.4203 6.10968C50.0403 6.11968 50.5903 5.57972 50.5903 4.95972Z" fill="#EAF4FB"/>
<path d="M62.47 35.7793C62.48 37.6793 62.49 39.5693 62.49 41.4693C62.49 48.8893 62.49 56.2993 62.49 63.7193C62.49 65.4593 61.38 66.5793 59.64 66.5693C58.01 66.5693 56.38 66.5593 54.75 66.5493C56.25 66.0193 56.8399 64.9893 56.8199 63.3793C56.7599 56.1593 56.79 48.9493 56.79 41.7293C58.69 39.7493 60.58 37.7693 62.47 35.7793Z" fill="#00A4C4"/>
<path d="M62.5121 25.7188C60.6221 27.6988 58.722 29.6788 56.832 31.6588C56.832 25.7088 56.832 16.0588 56.832 10.1088C56.872 10.0888 56.912 10.0688 56.942 10.0488C58.782 10.0588 60.632 10.0588 62.472 10.0688C62.482 13.6088 62.4921 17.1489 62.4921 20.6989C62.4921 21.1289 62.5021 25.2788 62.5121 25.7188Z" fill="#00A4C4"/>
<path opacity="0.6" d="M21.6216 37.0798C17.8216 37.0798 14.0316 37.0798 10.2316 37.0798C9.94163 37.0798 9.56166 37.1198 9.39166 36.9598C9.08166 36.6798 8.68159 36.2598 8.69159 35.9098C8.70159 35.5598 9.1216 35.1698 9.4516 34.8998C9.6216 34.7598 9.96163 34.7898 10.2316 34.7898C17.8216 34.7898 25.4217 34.7898 33.0117 34.7898C33.2517 34.7898 33.5016 34.7998 33.7316 34.8498C34.3016 34.9798 34.6116 35.3498 34.6116 35.9398C34.6116 36.5698 34.2517 36.9298 33.6617 37.0598C33.4317 37.1098 33.1816 37.0898 32.9316 37.0898C29.1616 37.0798 25.3916 37.0798 21.6216 37.0798Z" fill="#7CBDD7"/>
<path opacity="0.6" d="M21.6018 30.4989C17.8318 30.4989 14.0618 30.4989 10.2818 30.4989C10.0118 30.4989 9.74177 30.5089 9.48177 30.4389C8.92177 30.2889 8.53183 29.8489 8.66183 29.3189C8.75183 28.9189 9.1718 28.5589 9.5118 28.2789C9.6818 28.1389 10.0218 28.2089 10.2918 28.2089C17.8318 28.2089 25.3817 28.2089 32.9217 28.2089C33.1617 28.2089 33.4118 28.1989 33.6518 28.2489C34.2518 28.3689 34.6018 28.7389 34.5918 29.3689C34.5918 29.9989 34.2218 30.3489 33.6318 30.4789C33.4018 30.5289 33.1518 30.5089 32.9018 30.5089C29.1518 30.4989 25.3818 30.4989 21.6018 30.4989Z" fill="#7CBDD7"/>
<path d="M21.6018 23.9501C17.8318 23.9501 14.0618 23.9501 10.2818 23.9501C10.0118 23.9501 9.74177 23.9601 9.48177 23.8901C8.92177 23.7401 8.53183 23.3001 8.66183 22.7701C8.75183 22.3701 9.1718 22.0101 9.5118 21.7301C9.6818 21.5901 10.0218 21.6601 10.2918 21.6601C17.8318 21.6601 25.3817 21.6601 32.9217 21.6601C33.1617 21.6601 33.4118 21.6501 33.6518 21.7001C34.2518 21.8201 34.6018 22.1901 34.5918 22.8201C34.5918 23.4501 34.2218 23.8001 33.6318 23.9301C33.4018 23.9801 33.1518 23.9601 32.9018 23.9601C29.1518 23.9501 25.3818 23.9501 21.6018 23.9501Z" fill="#F7F7F7"/>
<path d="M62.4684 10.0696C60.6284 10.0596 58.7784 10.0595 56.9384 10.0495C56.9384 7.93953 56.9384 5.82957 56.9384 3.70956C56.9384 2.18956 56.3584 1.03955 54.8984 0.439545C56.6284 0.429545 58.3484 0.389536 60.0784 0.429536C61.3184 0.449536 62.4684 1.63952 62.4784 2.90952C62.4984 5.29952 62.4684 7.67955 62.4684 10.0696Z" fill="#D4DBEF"/>
<path d="M21.6802 6.11902C17.6702 6.11902 13.6603 6.139 9.64027 6.089C9.20027 6.089 8.63024 5.82903 8.36024 5.49903C7.88024 4.91903 8.34023 4.03905 9.10023 3.89905C9.36023 3.84905 9.63028 3.85902 9.90028 3.85902C17.7303 3.85902 25.5603 3.85902 33.3903 3.85902C33.6103 3.85902 33.8302 3.84903 34.0502 3.87903C34.6602 3.95903 35.0202 4.30902 35.0502 4.92902C35.0902 5.52902 34.6902 6.00901 34.0802 6.09901C33.8702 6.12901 33.6402 6.11902 33.4202 6.11902C29.5102 6.11902 25.6002 6.11902 21.6802 6.11902Z" fill="#225886"/>
<path d="M55.4202 4.93957C55.4402 5.54957 54.9003 6.09955 54.2703 6.10955C53.6603 6.11955 53.1602 5.63953 53.1302 5.02953C53.1002 4.37953 53.5802 3.84957 54.2202 3.81957C54.8402 3.78957 55.4002 4.31957 55.4202 4.93957Z" fill="#288ECD"/>
<path d="M45.7611 4.99001C45.7511 5.62001 45.2311 6.13001 44.5911 6.12001C43.9411 6.11001 43.4611 5.60002 43.4811 4.94002C43.5011 4.32002 43.9811 3.83998 44.6011 3.83998C45.2311 3.82998 45.7711 4.36001 45.7611 4.99001Z" fill="#225886"/>
<path d="M50.5888 4.95875C50.5888 5.56875 50.0287 6.11872 49.4187 6.10872C48.8087 6.09872 48.3187 5.60873 48.3087 4.99873C48.2987 4.34873 48.7887 3.81873 49.4187 3.80873C50.0387 3.79873 50.5888 4.34875 50.5888 4.95875Z" fill="#226CA3"/>
<path d="M22.8318 46.8892C25.6218 46.8892 28.4218 46.8792 31.2118 46.8992C31.5818 46.8992 32.0319 46.9792 32.2819 47.2092C32.5219 47.4292 32.7119 47.9192 32.6419 48.2192C32.5619 48.5492 32.1919 48.8592 31.8919 49.0892C31.7219 49.2092 31.4218 49.1792 31.1818 49.1792C25.5918 49.1792 20.0018 49.1792 14.4218 49.1792C13.5418 49.1792 13.0818 48.8792 12.9618 48.2792C12.8018 47.4592 13.3318 46.8992 14.3018 46.8992C17.1518 46.8892 19.9918 46.8892 22.8318 46.8892Z" fill="#225886"/>
<path d="M22.8301 53.1294C25.6201 53.1294 42.8001 53.1195 45.6001 53.1395C45.9701 53.1395 46.4201 53.2195 46.6701 53.4495C46.9101 53.6695 47.1002 54.1595 47.0302 54.4595C46.9502 54.7895 46.5802 55.0995 46.2702 55.3295C46.1002 55.4495 45.8001 55.4194 45.5601 55.4194C39.9701 55.4194 20.0002 55.4194 14.4102 55.4194C13.5302 55.4194 13.0701 55.1195 12.9501 54.5195C12.7901 53.6995 13.3202 53.1395 14.2902 53.1395C17.1502 53.1195 19.9901 53.1294 22.8301 53.1294Z" fill="#225886"/>
<path d="M28.9908 21.5599C28.2308 21.5599 27.5708 21.5599 26.8008 21.5599C27.1608 20.4599 27.5108 19.4199 27.9208 18.1699C28.3208 19.4199 28.6508 20.4699 28.9908 21.5599Z" fill="#4FC4D8"/>
<path d="M44.0703 43.1794C44.2103 42.9894 44.3304 42.7794 44.4904 42.6194C50.2504 36.8494 56.0104 31.0894 61.7804 25.3294C61.8604 25.2494 61.9603 25.1794 62.0503 25.1094C63.1803 26.3094 64.3203 27.4994 65.4503 28.6894C65.2503 28.9794 65.0903 29.2994 64.8503 29.5394C59.3703 35.0294 53.8804 40.5194 48.4004 45.9994C48.1804 46.2194 47.9303 46.4194 47.6903 46.6394C46.4303 45.4394 45.2503 44.3094 44.0703 43.1794Z" fill="#226CA3"/>
<path d="M44.0721 43.1792C45.2521 44.3092 46.4321 45.4392 47.6921 46.6492C47.9321 46.4292 48.1822 46.2292 48.4022 46.0092C53.8922 40.5292 59.3722 35.0392 64.8522 29.5492C65.0922 29.3092 65.2521 28.9792 65.4521 28.6992C66.2021 29.4192 66.9421 30.1392 67.6921 30.8592C64.4921 34.0792 61.2922 37.2892 58.0922 40.5092C57.8622 40.7392 57.6521 40.9892 57.4321 41.2292C54.4121 44.2292 51.3922 47.2192 48.3722 50.2092C48.1322 50.4492 47.8122 50.6192 47.5322 50.8192C45.6822 48.9792 43.8322 47.1392 41.9922 45.3092C42.6822 44.5992 43.3821 43.8892 44.0721 43.1792Z" fill="#288ECD"/>
<path d="M66.4805 20.7392C67.9905 19.2192 69.4605 17.6492 71.0205 16.1792C72.6505 14.6392 75.0206 14.7092 76.5806 16.2492C78.1706 17.8092 78.2604 20.2192 76.7004 21.8692C75.2304 23.4292 73.6604 24.8992 72.1404 26.4092C70.2504 24.5192 68.3605 22.6292 66.4805 20.7392Z" fill="#BEC8E0"/>
<path d="M66.4808 20.7402C68.3708 22.6302 70.2507 24.5203 72.1407 26.4003C70.6607 27.8803 69.1808 29.3602 67.6908 30.8402C66.9408 30.1202 66.2008 29.4002 65.4508 28.6802C64.3208 27.4802 63.1808 26.2902 62.0508 25.0902C63.5308 23.6502 65.0008 22.2002 66.4808 20.7402Z" fill="#D4DBEF"/>
<path d="M41.9888 45.3086C43.8388 47.1486 45.6888 48.9886 47.5288 50.8186C47.3288 50.9286 47.1287 51.0786 46.9187 51.1486C44.5987 51.9286 42.2787 52.6986 39.9587 53.4686C39.7687 53.5286 39.5788 53.5486 39.2188 53.6286C39.3287 53.2086 39.3888 52.9086 39.4888 52.6086C40.1788 50.5386 40.8687 48.4786 41.5587 46.4186C41.6587 46.1086 41.6988 45.7786 41.7688 45.4686C41.8488 45.4186 41.9188 45.3586 41.9888 45.3086Z" fill="#F0B9A1"/>
</svg>
