<svg width="81" height="78" viewBox="0 0 81 78" fill="none" xmlns="http://www.w3.org/2000/svg">
<path d="M12.1802 71.2191C8.53018 67.5891 4.89023 63.9591 1.24023 60.3291C1.00023 60.0991 0.690156 59.9491 0.410156 59.7591C0.410156 59.1691 0.410156 58.5891 0.410156 57.9991C0.850156 57.6391 1.31021 57.2991 1.72021 56.9091C2.42021 56.2491 3.08026 55.5491 3.77026 54.8791C4.63026 54.0391 5.48013 54.0591 6.38013 54.8891C6.72013 55.1991 7.1002 55.4591 7.46021 55.7391C7.52021 55.8691 7.55014 56.0191 7.64014 56.1191C10.1601 58.6291 12.6802 61.1291 15.2102 63.6391C15.9902 64.4491 16.7603 65.2491 17.5403 66.0591C17.2103 66.3491 16.8803 66.6291 16.5603 66.9391C15.1003 68.3591 13.6402 69.7891 12.1802 71.2191Z" fill="#4FC4D8"/>
<path d="M50.7205 36.3489C50.3405 36.6489 49.9206 36.9389 49.5706 37.2789C45.0506 41.5189 40.4906 45.7389 36.8306 50.7889C34.5906 53.8589 31.7505 56.0789 28.0605 57.1689C25.7305 57.8689 23.4604 58.709 21.1404 59.459C19.6104 59.949 18.2604 60.6889 17.1604 61.9189C16.5904 62.5589 15.8705 63.079 15.2205 63.649C12.6905 61.139 10.1704 58.6389 7.6604 56.1289C7.5604 56.0389 7.54047 55.889 7.48047 55.759C9.64047 53.609 11.9004 51.5589 13.9104 49.2789C14.8004 48.2689 15.2705 46.8389 15.7205 45.5289C17.1705 41.3189 18.5704 37.0889 19.9204 32.8389C20.6404 30.6189 21.8504 28.7989 23.6804 27.3689C27.5004 24.3689 31.3204 21.359 35.1104 18.329C36.4704 17.239 37.9305 16.6389 39.7205 16.8389C42.5305 17.1589 45.3504 17.409 48.1604 17.699C47.9404 17.929 47.7305 18.169 47.5005 18.399C43.4305 22.479 39.3505 26.549 35.2905 30.639C35.0205 30.909 34.7505 31.2989 34.7405 31.6589C34.7005 33.5789 34.7405 35.519 34.7505 37.449C34.7405 39.199 34.7105 40.9589 34.7305 42.7189C34.7305 43.0489 34.8605 43.419 35.0305 43.709C36.3705 46.049 38.8305 46.3689 40.7505 44.4689C41.5305 43.6989 42.2805 42.9389 43.0505 42.1689C45.0305 40.1789 46.9305 38.0789 49.4705 36.7489C49.8705 36.5989 50.3005 36.4689 50.7205 36.3489Z" fill="#FDD7B6"/>
<path d="M80.8285 14.1491L77.6583 17.3191C77.6483 17.3191 77.6483 17.3091 77.6383 17.2991L73.5685 21.3691L73.5584 21.3191C73.4984 21.3691 73.4283 21.4391 73.3683 21.4991C70.5883 24.2891 67.7884 27.0591 64.9884 29.8291C64.9684 29.8491 64.9383 29.8591 64.9083 29.8691C64.7183 29.5391 64.5385 29.2091 64.3385 28.8891C62.7885 26.4891 60.5984 25.0791 57.7484 24.9391C51.2984 24.6191 47.0883 30.6391 49.4583 36.7191C46.9183 38.0491 45.0284 40.1391 43.0384 42.1391C42.2684 42.9091 41.5184 43.6691 40.7384 44.4391C38.8184 46.3391 36.3584 46.0191 35.0184 43.6791C34.8484 43.3891 34.7184 43.0291 34.7184 42.6891C34.6984 40.9291 34.7284 39.1691 34.7384 37.4191C34.7284 35.4891 34.6884 33.5491 34.7284 31.6291C34.7384 31.2791 35.0084 30.8791 35.2784 30.6091C39.3384 26.5191 43.4184 22.4491 47.4884 18.3691C47.7184 18.1491 47.9283 17.9091 48.1483 17.6691C48.7383 17.1091 49.3383 16.5391 49.9083 15.9691C54.9983 10.8891 60.0683 5.80906 65.1483 0.729062C66.0683 -0.190938 66.4883 -0.190938 67.4083 0.729062C71.8783 5.19906 76.3585 9.66911 80.8285 14.1491Z" fill="#7CBDD7"/>
<path d="M59.7009 40.5802C57.9609 38.6002 55.231 38.4302 53.311 40.2202C52.681 40.8202 52.0509 41.4502 51.4509 42.0802C50.4409 43.1502 50.4509 44.3702 51.4709 45.4402C52.0509 46.0502 52.6409 46.6702 53.2209 47.2702C52.6209 47.9002 52.0309 48.5502 51.4109 49.1602C48.8609 51.6502 46.331 54.1602 44.291 57.1002C43.351 58.2202 42.421 59.3402 41.481 60.4502C38.291 63.4902 34.0809 64.3202 30.1309 65.7302C29.1909 66.0602 28.261 66.3602 27.321 66.6602C25.191 67.3202 23.8809 69.0202 22.4109 70.5102C22.1609 70.3702 21.8609 70.2602 21.6409 70.0602C20.2709 68.7402 18.911 67.3902 17.551 66.0502C16.761 65.2402 15.9909 64.4402 15.2109 63.6302C15.8609 63.0602 16.5809 62.5402 17.1509 61.9002C18.2509 60.6702 19.6009 59.9402 21.1309 59.4402C23.4509 58.6902 25.721 57.8502 28.051 57.1502C31.751 56.0602 34.591 53.8502 36.821 50.7702C40.491 45.7202 45.041 41.5002 49.561 37.2602C49.911 36.9302 50.3309 36.6402 50.7109 36.3302C51.7009 35.9202 52.6609 35.4202 53.6809 35.1202C55.4009 34.6202 57.1709 34.3402 58.9309 34.9102C60.2709 35.3302 61.1409 36.2402 61.3809 37.6302C61.5609 38.6202 60.6309 40.1302 59.7009 40.5802Z" fill="#E8CAB3"/>
<path d="M17.5398 66.0508C18.8998 67.3908 20.2596 68.7308 21.6396 70.0608C21.8496 70.2608 22.1497 70.3708 22.3997 70.5208C22.6297 70.8408 22.8396 71.1908 23.1096 71.4908C24.0896 72.5808 24.0998 73.4408 23.0698 74.4808C22.2498 75.3108 21.4298 76.1508 20.5898 76.9608C19.5998 77.9108 18.8096 77.9208 17.8596 76.9608C15.9596 75.0608 14.0697 73.1408 12.1797 71.2308C13.6397 69.8008 15.0998 68.3608 16.5598 66.9408C16.8798 66.6308 17.2198 66.3508 17.5398 66.0508Z" fill="#00A4C4"/>
<path d="M63.5016 38.888C62.3616 40.228 60.9315 41.158 59.1615 41.478C59.3415 41.188 59.5216 40.888 59.6916 40.578C60.6316 40.138 61.5515 38.628 61.3815 37.648C61.1415 36.258 60.2716 35.348 58.9316 34.928C57.1716 34.368 55.4016 34.638 53.6816 35.138C52.6616 35.438 51.7016 35.938 50.7116 36.348C50.2916 36.468 49.8616 36.5979 49.4416 36.7179C47.0716 30.6479 51.2816 24.618 57.7316 24.938C60.5816 25.078 62.7717 26.488 64.3217 28.888C64.5217 29.198 64.7015 29.528 64.8915 29.868C66.1315 33.128 65.8016 36.178 63.5016 38.888Z" fill="#288ECD"/>
<path d="M59.7005 40.5777C59.5305 40.8777 59.3505 41.1777 59.1705 41.4777C57.4505 43.1777 55.7305 44.8777 54.0005 46.5877C53.7605 46.8277 53.4905 47.0477 53.2205 47.2877C52.6405 46.6877 52.0505 46.0677 51.4705 45.4577C50.4505 44.3777 50.4405 43.1577 51.4505 42.0977C52.0505 41.4677 52.6806 40.8377 53.3106 40.2377C55.2206 38.4277 57.9505 38.5877 59.7005 40.5777Z" fill="#F0EEEE"/>
</svg>
