<svg width="34" height="35" viewBox="0 0 34 35" fill="none" xmlns="http://www.w3.org/2000/svg">
<path fill-rule="evenodd" clip-rule="evenodd" d="M12.9589 13.4346C12.7551 13.4346 12.5514 13.4346 12.3544 13.4346C12.1846 13.4346 12.0148 13.4346 11.8518 13.4346C11.3424 13.4346 10.8398 13.4346 10.3304 13.4346C10.2625 13.4346 10.1878 13.4415 10.1199 13.4484C9.86177 13.469 9.68525 13.6201 9.59016 13.8467C9.49507 14.0803 9.52216 14.3138 9.67838 14.5267C9.84138 14.7397 10.0656 14.7946 10.3169 14.7946C11.1726 14.7946 12.0284 14.7946 12.891 14.7946H13.5362C13.5769 14.7946 13.6109 14.7946 13.6517 14.7946C13.7332 14.7946 13.7603 14.829 13.7332 14.9114C13.706 15.0075 13.6788 15.1037 13.6517 15.193C13.6449 15.2136 13.6449 15.2274 13.6381 15.248C13.5294 15.6189 13.3528 15.9623 13.1287 16.2714C12.7483 16.8003 12.2593 17.1987 11.6684 17.4665C11.2949 17.6314 10.9146 17.7344 10.5138 17.7688C9.88899 17.8168 9.28449 17.7138 8.70719 17.4459C8.28609 17.2467 7.91253 16.9789 7.59332 16.6354C7.26052 16.2783 7.00922 15.873 6.83263 15.4128C6.6968 15.0625 6.61532 14.6985 6.60173 14.3207C6.59494 14.0872 6.61527 13.8467 6.63564 13.6063C6.63564 13.5789 6.64244 13.5583 6.64244 13.5308C6.6764 13.1255 6.81906 12.7478 7.00923 12.3906C7.38278 11.69 7.91934 11.1611 8.62569 10.8039C9.06716 10.5841 9.52903 10.4674 10.0113 10.433C10.3712 10.4055 10.7244 10.4536 11.0775 10.5429C11.4647 10.6322 11.8246 10.7833 12.1506 11.01C12.3408 11.1405 12.5174 11.2916 12.694 11.4427C12.728 11.4702 12.7551 11.4977 12.7891 11.5251C13.1151 11.7999 13.5633 11.7449 13.7943 11.3809C13.9709 11.1061 13.9166 10.749 13.6517 10.488C13.1966 10.0484 12.6804 9.69807 12.0963 9.45079C11.6005 9.24473 11.0843 9.12109 10.5545 9.07988C9.91612 9.0318 9.28446 9.11423 8.6732 9.32029C8.16381 9.48514 7.69521 9.73241 7.26732 10.0552C6.42513 10.694 5.83426 11.5114 5.50146 12.5211C5.35204 12.9676 5.27054 13.4277 5.25016 13.9017C5.223 14.5817 5.33165 15.2411 5.56936 15.8799C5.73236 16.3057 5.94288 16.711 6.21455 17.075C6.72394 17.7688 7.36243 18.2977 8.1367 18.6617C8.63929 18.8952 9.15543 19.0463 9.70557 19.0944C10.4798 19.17 11.2338 19.0738 11.9605 18.7853C12.5378 18.5587 13.0539 18.2358 13.5158 17.8237C14.0048 17.3773 14.392 16.8484 14.6704 16.2508C14.8334 15.9005 14.9556 15.5364 15.0371 15.1518C15.1119 14.7878 15.1594 14.4169 15.1458 14.0459C15.139 13.8948 15.0779 13.7643 14.9828 13.6476C14.8266 13.4621 14.6161 13.414 14.3852 13.4209C13.9029 13.4346 13.4343 13.4346 12.9589 13.4346ZM22.5965 28.168C22.5965 28.1748 22.6033 28.1886 22.6033 28.2023C22.5693 28.2366 22.5353 28.2779 22.5082 28.3122C22.4403 28.3878 22.3656 28.4702 22.2977 28.5457C21.7407 29.1433 21.1905 29.7409 20.6336 30.3385C20.3552 30.6407 20.0767 30.9429 19.7982 31.2451C19.6828 31.3688 19.5741 31.4855 19.4586 31.6092C19.3296 31.7465 19.2006 31.8839 19.0715 32.0213C18.99 32.1106 18.9561 32.1037 18.9221 31.987C18.8746 31.8358 18.8202 31.6779 18.7659 31.5267C18.7115 31.3756 18.664 31.2177 18.6097 31.0666C18.5621 30.9086 18.5078 30.7574 18.4603 30.5995C18.4127 30.4484 18.3652 30.3041 18.3177 30.153C18.2633 29.995 18.2158 29.837 18.1615 29.6859C18.1139 29.5417 18.0663 29.3974 18.0188 29.2532C17.9169 28.951 17.8219 28.6488 17.7268 28.3397C17.6724 28.1542 17.6792 28.1542 17.8694 28.1542C18.2497 28.1542 18.6301 28.1542 19.0104 28.1542C20.1515 28.1542 21.2925 28.1542 22.4403 28.1542C22.4742 28.1542 22.5082 28.1611 22.5422 28.1611C22.5625 28.168 22.5829 28.168 22.5965 28.168ZM23.3164 22.2952C23.3029 22.309 23.296 22.3227 23.2689 22.3433C23.2621 22.3364 23.2485 22.3227 23.2417 22.3158C23.2214 22.2952 23.2009 22.2815 23.1942 22.2609C23.1398 22.0892 23.0787 21.9106 23.0244 21.7389C22.9836 21.6152 22.9497 21.4985 22.909 21.3748C22.8546 21.21 22.8003 21.0383 22.746 20.8734C22.6984 20.736 22.6508 20.5918 22.6101 20.4544C22.5693 20.3239 22.5286 20.1934 22.4879 20.0698C22.4539 19.9599 22.4199 19.8568 22.386 19.7469C22.3452 19.6233 22.3044 19.4928 22.2637 19.3692C22.2297 19.2593 22.189 19.1494 22.1551 19.0395C22.1007 18.8815 22.0531 18.7235 21.9988 18.5655C21.9716 18.4831 21.9513 18.4075 21.9241 18.3251C21.8494 18.0916 21.7747 17.8581 21.6932 17.6245C21.6592 17.5146 21.6252 17.4116 21.5845 17.3017C21.5437 17.1781 21.503 17.0544 21.4623 16.9239C21.4419 16.8552 21.4215 16.7934 21.4011 16.7247C21.3739 16.6354 21.3468 16.5461 21.3128 16.4568C21.2788 16.3675 21.3196 16.3401 21.4011 16.3401H21.4759H26.8686C26.8822 16.3401 26.9025 16.3401 26.9161 16.3401C26.9297 16.3401 26.9433 16.3401 26.9501 16.3401C27.0316 16.3401 27.0519 16.3813 27.018 16.45C26.9568 16.5736 26.8957 16.6972 26.8278 16.8209C26.6648 17.1437 26.5018 17.4666 26.332 17.7825C26.0875 18.2358 25.8294 18.6823 25.5713 19.1219C25.4423 19.3417 25.3064 19.5546 25.1706 19.7676C25.1231 19.8431 25.0755 19.9187 25.028 19.9874C24.9805 20.0629 24.9329 20.0492 24.8853 19.9805C24.7087 19.7469 24.5254 19.5065 24.3488 19.273C24.0704 18.9021 23.7919 18.5381 23.5134 18.1672C23.2214 17.7756 22.6983 17.755 22.4131 18.1397C22.2569 18.3526 22.2162 18.696 22.4675 19.0189C22.7391 19.3692 23.004 19.7195 23.2689 20.0698C23.5337 20.4201 23.8054 20.7704 24.0703 21.1207C24.1315 21.2031 24.1383 21.2649 24.0703 21.3405C23.8802 21.574 23.6968 21.8007 23.5066 22.0342C23.4455 22.1373 23.3844 22.2197 23.3164 22.2952ZM20.2805 32.7494L20.2737 32.7082C20.3145 32.6601 20.3552 32.6189 20.4027 32.5708C20.5521 32.4128 20.6948 32.248 20.8442 32.09C21.6117 31.2589 22.3792 30.4278 23.1534 29.5966C23.656 29.054 24.1586 28.5045 24.668 27.9619C24.8854 27.7284 24.9125 27.4605 24.8106 27.1651C24.7495 26.9865 24.6884 26.8011 24.634 26.6156C24.5933 26.492 24.5594 26.3684 24.5186 26.2516C24.4643 26.0936 24.4168 25.9356 24.3624 25.7777C24.3149 25.6334 24.2673 25.4892 24.2197 25.3449C24.1722 25.2007 24.1247 25.0564 24.0771 24.9122C24.05 24.8229 24.016 24.7267 23.9888 24.6374C23.9685 24.5825 23.9549 24.5207 23.9345 24.4657C23.8802 24.3009 23.8326 24.136 23.7714 23.9712C23.7375 23.8888 23.7647 23.8407 23.8122 23.7789C23.8666 23.717 23.9277 23.6484 23.982 23.5865C24.1315 23.4217 24.2809 23.2569 24.4235 23.0851C24.6069 22.8653 24.7902 22.6455 24.9668 22.4189C25.0279 22.3433 25.0687 22.3433 25.1298 22.412C25.2317 22.5288 25.3336 22.6524 25.4355 22.776C25.7479 23.1401 26.0536 23.511 26.3796 23.8613C26.9297 24.4726 27.4934 25.077 28.0639 25.6678C28.3967 26.0181 28.8857 25.9562 29.1302 25.5441C29.2796 25.2968 29.2729 25.029 29.0555 24.7817C28.8925 24.5963 28.7227 24.4177 28.5529 24.2391C28.3899 24.0674 28.2269 23.8956 28.0707 23.7239C27.6089 23.2019 27.1538 22.6799 26.6988 22.151C26.4475 21.8625 26.1962 21.5672 25.9381 21.2787C25.877 21.21 25.8769 21.155 25.9245 21.0795C25.9992 20.9558 26.0807 20.8391 26.1554 20.7223C26.3727 20.3857 26.5969 20.0492 26.8007 19.6989C27.1199 19.1631 27.4119 18.6205 27.704 18.071C27.8466 17.8031 27.9824 17.5215 28.1182 17.2468C28.1454 17.1987 28.1658 17.1437 28.1929 17.0956C28.2948 16.8827 28.3967 16.6766 28.485 16.4568C28.5258 16.3607 28.5801 16.3401 28.6684 16.3401H28.7567C29.1371 16.3401 29.5174 16.3401 29.8909 16.3401C30.1422 16.3401 30.3528 16.2508 30.509 16.0379C30.7807 15.6532 30.5429 15.0694 30.0811 15.0007C29.9928 14.9869 29.8977 14.987 29.8094 14.987C28.4578 14.987 27.1063 14.987 25.7547 14.987C25.6257 14.987 25.5645 14.9183 25.5645 14.7878C25.5645 14.6916 25.5645 14.5954 25.5645 14.4993C25.5645 14.2657 25.5645 14.0322 25.5645 13.7987C25.5713 13.3385 25.1842 12.9882 24.6816 13.1187C24.4507 13.1805 24.2401 13.4484 24.2333 13.7094C24.2265 13.9635 24.2265 14.2245 24.2265 14.4787C24.2265 14.5886 24.2265 14.6985 24.2265 14.8015C24.2265 14.9183 24.1654 14.9801 24.0499 14.9801H20.9868C20.817 14.9801 20.817 14.9732 20.7627 14.8152C20.6948 14.616 20.6336 14.4169 20.5657 14.2177C20.4842 13.9773 20.4027 13.7368 20.328 13.4964C20.2669 13.3041 20.2058 13.1049 20.1446 12.9126C20.0903 12.734 20.0292 12.5554 19.9748 12.3768C19.9273 12.2257 19.873 12.0746 19.8254 11.9235C19.7711 11.7724 19.7236 11.6213 19.676 11.4702C19.6285 11.3191 19.5809 11.168 19.5265 11.01C19.479 10.8589 19.4315 10.7078 19.3771 10.5498C19.3228 10.3849 19.2685 10.2132 19.2141 10.0484C19.1666 9.91099 19.1259 9.77361 19.0783 9.63624C19.0172 9.45079 18.9629 9.27221 18.9017 9.08675C18.861 8.96999 18.827 8.84634 18.7863 8.72957C18.7387 8.58533 18.6912 8.4411 18.6437 8.29686C18.6097 8.2007 18.5825 8.10453 18.5486 8.00836C18.535 7.96715 18.5214 7.92595 18.5078 7.88473C18.467 7.7611 18.4263 7.63745 18.3856 7.50694C18.3516 7.39704 18.3788 7.37645 18.4875 7.36958H18.5486C19.5945 7.36958 20.6404 7.36958 21.6864 7.36958C24.8106 7.36958 27.9349 7.36958 31.0592 7.36958C31.358 7.36958 31.6433 7.41079 31.9013 7.55503C32.1798 7.70614 32.3835 7.93281 32.5193 8.22129C32.6212 8.44109 32.6552 8.68149 32.6552 8.92877C32.6552 16.3401 32.6552 23.7583 32.6552 31.1696C32.6552 31.7259 32.4447 32.1655 31.9896 32.4746C31.7859 32.612 31.555 32.6875 31.3105 32.7082C31.2629 32.715 31.2085 32.715 31.161 32.715C31.1474 32.715 31.1339 32.715 31.1203 32.715H20.4435H20.2805V32.7494ZM1.33126 25.1664V14.1284C1.33126 13.3865 1.33126 12.6447 1.33126 11.9029C1.33126 8.93565 1.33126 5.96836 1.33126 3.00109C1.33126 2.58896 1.4467 2.21807 1.73195 1.91584C1.99683 1.62736 2.3364 1.47624 2.72354 1.46251C2.76429 1.46251 2.80507 1.46251 2.83903 1.46251C2.84582 1.46251 2.85943 1.46251 2.86622 1.46251H14.8402C15.0168 1.46251 15.0236 1.47624 15.0779 1.64795C15.1459 1.86088 15.2137 2.07383 15.2816 2.28676C15.3156 2.38979 15.3496 2.49281 15.3835 2.59584C15.4243 2.71947 15.4651 2.83624 15.499 2.95988C15.533 3.06977 15.5738 3.18654 15.6077 3.29643C15.6553 3.45441 15.7096 3.60554 15.7571 3.76352C15.8115 3.9215 15.859 4.07261 15.9133 4.23059C15.9541 4.34735 15.9881 4.46413 16.0288 4.5809C16.0696 4.69766 16.1035 4.81442 16.1442 4.93119C16.1918 5.07543 16.2394 5.21967 16.2869 5.36392C16.3209 5.46008 16.348 5.55625 16.382 5.65241C16.4567 5.87908 16.5314 6.11261 16.6061 6.33928C16.6333 6.41483 16.6536 6.48351 16.6808 6.55906C16.7623 6.80633 16.8438 7.04674 16.9185 7.29402C16.9728 7.46573 17.0272 7.63746 17.0815 7.80231C17.1222 7.93282 17.163 8.06331 17.2106 8.19381C17.2581 8.33119 17.3056 8.47544 17.3464 8.61281C17.3804 8.71584 17.4143 8.81201 17.4483 8.91504C17.4822 9.02494 17.523 9.13483 17.557 9.2516C17.5977 9.36836 17.6316 9.48512 17.6724 9.60876C17.7131 9.7324 17.7539 9.85604 17.7947 9.97967C17.8354 10.1033 17.8761 10.227 17.9169 10.3506C17.9576 10.4674 17.9916 10.5841 18.0324 10.7009C18.0731 10.8177 18.1071 10.9344 18.1479 11.0512C18.2226 11.2916 18.3041 11.532 18.3856 11.7724C18.4603 12.0059 18.535 12.2395 18.6165 12.473C18.698 12.7134 18.7727 12.9538 18.8542 13.1942V13.2011C18.8813 13.2766 18.9018 13.3591 18.9289 13.4346C18.9765 13.5926 19.0308 13.7437 19.0783 13.9017C19.1802 14.2108 19.2821 14.5199 19.3839 14.8358C19.4247 14.9526 19.4587 15.0694 19.4994 15.1793C19.5334 15.296 19.5741 15.4059 19.6148 15.5227C19.642 15.6051 19.6692 15.6875 19.6963 15.77C19.7507 15.9348 19.8051 16.0997 19.8594 16.2645C19.8934 16.3675 19.9273 16.4706 19.9612 16.5736C20.002 16.711 20.0496 16.8415 20.0903 16.9789C20.1311 17.1094 20.1786 17.2399 20.2193 17.3704C20.2533 17.4734 20.2873 17.5833 20.3212 17.6863C20.362 17.8031 20.396 17.9199 20.4367 18.0435C20.4775 18.1603 20.5114 18.2771 20.5521 18.4007C20.5997 18.5381 20.6473 18.6823 20.688 18.8197C20.722 18.9227 20.7559 19.0189 20.7899 19.1219C20.8646 19.3486 20.9393 19.5821 21.014 19.8088C21.0548 19.9255 21.0887 20.0423 21.1295 20.1659C21.1702 20.2827 21.2042 20.3995 21.2449 20.5231C21.3264 20.7704 21.4079 21.0245 21.4894 21.2718C21.5369 21.4092 21.5777 21.5465 21.6253 21.677C21.6796 21.8419 21.7339 22.0136 21.7883 22.1785C21.8358 22.3158 21.8765 22.4601 21.9241 22.5974C21.9513 22.6867 21.9852 22.776 22.0124 22.8722C22.0531 22.9958 22.0939 23.1126 22.1347 23.2363C22.1754 23.3599 22.2161 23.4767 22.2569 23.6003C22.2976 23.7171 22.3316 23.8338 22.3724 23.9575C22.4131 24.0742 22.4471 24.191 22.4879 24.3146C22.5626 24.5482 22.6373 24.7817 22.7188 25.0152C22.7595 25.132 22.7935 25.2488 22.8343 25.3724C22.875 25.496 22.9089 25.6059 22.9497 25.7296C22.9768 25.8189 23.0108 25.9082 23.038 26.0043C23.1127 26.231 23.1806 26.4508 23.2621 26.6775C23.3096 26.8148 23.2961 26.856 23.1534 26.856C21.4555 26.856 19.7575 26.856 18.0528 26.856C12.9996 26.856 7.95326 26.856 2.90013 26.856C2.35678 26.856 1.91537 26.65 1.60295 26.1898C1.46032 25.9769 1.38554 25.7433 1.36517 25.4892C1.35838 25.4205 1.35837 25.3518 1.35837 25.2831C1.32441 25.2076 1.33126 25.187 1.33126 25.1664ZM0 2.80191C0 6.57282 0 10.3506 0 14.1215C0 17.8237 0 21.5328 0 25.235C0 25.4411 4.64284e-05 25.6471 0.0475893 25.8601C0.135883 26.2722 0.292076 26.6568 0.536582 26.9934C0.889758 27.4879 1.35843 27.8245 1.92894 28.0169C2.22778 28.1199 2.547 28.1542 2.86622 28.1542C7.24696 28.1542 11.6277 28.1542 16.0084 28.1542C16.0628 28.1542 16.1171 28.1542 16.1646 28.1542C16.2325 28.1473 16.2665 28.1748 16.2869 28.2435C16.3684 28.4977 16.4499 28.7518 16.5382 29.0059L16.5585 29.0678C16.6061 29.2189 16.6605 29.3631 16.708 29.5142C16.7827 29.734 16.8574 29.9607 16.9321 30.1805C16.9932 30.3659 17.0544 30.5514 17.1087 30.7368C17.1698 30.9223 17.2242 31.1078 17.2853 31.2932C17.3464 31.4787 17.4076 31.6641 17.4687 31.8496C17.5298 32.035 17.5909 32.2205 17.6521 32.4059C17.6996 32.557 17.7539 32.715 17.8015 32.8661C17.8694 33.0859 17.9441 33.3057 18.012 33.5255C18.0459 33.6354 18.0935 33.7453 18.1615 33.8415C18.3109 34.0475 18.5282 34.1094 18.7727 34.1094C22.3791 34.1094 25.9856 34.1094 29.5853 34.1094H31.1407C31.2154 34.1094 31.2969 34.1094 31.3716 34.1025C31.6976 34.0888 32.01 34.0132 32.302 33.8827C32.7571 33.6835 33.1443 33.3882 33.4363 32.976C33.7963 32.4746 34 31.9251 34 31.3001V31.1078V27.9619C34 21.6564 34 15.351 34 9.04554V9.01119C34 8.79139 34 8.57159 33.9457 8.34492C33.8506 7.9328 33.7011 7.54816 33.4566 7.21159C33.1034 6.71705 32.6349 6.38049 32.0643 6.18817C31.7655 6.09201 31.4463 6.05078 31.1271 6.05078C27.6564 6.05078 24.179 6.05078 20.7084 6.05078C19.8458 6.05078 18.9764 6.05078 18.1139 6.05078C18.1003 6.05078 18.0867 6.05078 18.0732 6.05078C18.0392 6.05078 18.012 6.05765 17.9849 6.04391C17.9373 6.0233 17.883 5.99585 17.8694 5.95463C17.8083 5.78979 17.7607 5.62492 17.7064 5.46694C17.6928 5.41199 17.6724 5.36393 17.6588 5.30898C17.6316 5.21968 17.6045 5.13726 17.5773 5.04796C17.5297 4.89685 17.4822 4.74574 17.4347 4.6015C17.3871 4.45726 17.3396 4.31301 17.2921 4.16877C17.2378 4.01079 17.1834 3.85281 17.1359 3.69483C17.0883 3.55059 17.0407 3.39947 16.9932 3.25522C16.9457 3.09724 16.8913 2.93926 16.8438 2.78128C16.7827 2.59583 16.7215 2.41038 16.6604 2.22492C16.5993 2.03947 16.5381 1.85401 16.477 1.66856C16.4295 1.52432 16.382 1.38008 16.3412 1.2427C16.2733 1.02291 16.1986 0.796239 16.1239 0.576441C16.0764 0.432198 15.9881 0.308569 15.8522 0.219277C15.7028 0.123115 15.5465 0.109375 15.3767 0.109375C13.9233 0.109375 12.4699 0.109375 11.0164 0.109375C8.35403 0.109375 5.68482 0.109375 3.02242 0.109375C2.75754 0.109375 2.49263 0.136847 2.22774 0.171191C1.93569 0.205534 1.66405 0.322297 1.41276 0.466539C0.923744 0.748155 0.543384 1.14655 0.292086 1.6617C0.115498 2.01888 0 2.39666 0 2.80191Z" fill="#BACAD3"/>
</svg>
