<svg width="123" height="52" viewBox="0 0 123 52" fill="none" xmlns="http://www.w3.org/2000/svg">
<path d="M112.239 34.8867H106.089C104.419 34.8867 102.979 36.0867 102.699 37.7367L101.879 42.4567H110.629L110.989 41.2167H104.369L105.009 37.5967C105.119 36.7767 105.819 36.1567 106.639 36.1567H109.799L109.469 37.2167H111.469L112.239 34.8867Z" fill="#1F7DC1"/>
<path d="M102.661 34.8867H96.7906C94.8406 34.8867 93.1706 36.2967 92.8506 38.2167L92.1406 42.4567H101.001L101.301 41.2167H94.5606L95.2106 37.7367C95.4006 36.7067 96.3106 35.9567 97.3606 35.9567H99.9806L99.5806 37.5267C99.3806 38.2767 98.9206 38.7767 98.2106 38.7767H96.5806L96.3906 40.0367H98.4706C100.201 40.0367 101.721 38.8867 102.191 37.2167L102.661 34.8867Z" fill="#1F7DC1"/>
<path d="M53.9403 34.8867L53.5403 37.4967H49.6003L50.0403 34.8867H47.4703L46.3203 42.4667H48.7603L49.4003 38.6767H53.3603L52.7803 42.4667H55.2203L56.5103 34.8867H53.9403Z" fill="#1F7DC1"/>
<path d="M119.479 34.8867L119.079 37.4967H115.139L115.579 34.8867H113.009L111.859 42.4667H114.299L114.939 38.6767H118.899L118.319 42.4667H120.759L122.049 34.8867H119.479Z" fill="#1F7DC1"/>
<path d="M57.4505 34.8867H60.1505L59.0005 40.3267C58.9005 40.7967 59.2605 41.2467 59.7505 41.2467H62.5205C62.7905 41.2467 63.0205 41.0567 63.0705 40.7967L64.2805 34.8867H66.5705L65.1205 42.3067C64.7905 43.9867 63.3205 45.1967 61.6105 45.1967H55.4805L56.0205 43.8267H60.9105C61.7005 43.8267 62.3905 43.3067 62.6105 42.5467H58.8605C57.3505 42.5467 56.2105 41.1667 56.5005 39.6767L57.4505 34.8867Z" fill="#1F7DC1"/>
<path d="M73.7692 37.2289L74.0992 36.1689H70.9392C70.1092 36.1689 69.4092 36.7789 69.3092 37.5989L69.0492 39.0889H75.5092L75.0992 41.2089L74.8592 42.4489H66.1992L66.4092 41.2089H73.2292L73.4092 40.3189L69.0292 40.2689H68.8392L66.5692 40.2489L66.7692 39.0889L67.0092 37.7289C67.2992 36.0789 68.7292 34.8789 70.3992 34.8789H76.5492L75.7792 37.2189H73.7692V37.2289Z" fill="#1F7DC1"/>
<path d="M86.6684 34.8867H80.7984C78.8484 34.8867 77.1784 36.2967 76.8584 38.2167L76.1484 42.4567H85.0084L85.3084 41.2167H78.5684L79.2184 37.7367C79.4084 36.7067 80.3184 35.9567 81.3684 35.9567H83.9884L83.5884 37.5267C83.3884 38.2767 82.9284 38.7767 82.2184 38.7767H80.5884L80.3984 40.0367H82.4784C84.2084 40.0367 85.7284 38.8867 86.1984 37.2167L86.6684 34.8867Z" fill="#1F7DC1"/>
<path d="M87.9789 32.1484L86.589 40.2084C86.409 41.3984 87.329 42.4684 88.539 42.4684H91.0489L91.3089 41.4884H89.5589C88.9089 41.4884 88.4289 40.8984 88.5589 40.2584L89.3889 36.2885C89.4189 36.1485 89.5389 36.0484 89.6789 36.0484H91.9189L92.1289 34.8884H89.8689C89.7289 34.8884 89.629 34.7684 89.649 34.6284L90.039 32.1484H87.9789Z" fill="#1F7DC1"/>
<path d="M39.02 32.1172C39.02 35.8572 37.97 39.3472 36.15 42.3172C35.6 43.2272 34.96 44.0772 34.27 44.8772C31.18 48.4472 26.83 50.8772 21.9 51.4872C21.11 51.5872 20.32 51.6372 19.5 51.6372C18.16 51.6372 16.85 51.5072 15.59 51.2472C11.94 50.5072 8.67001 48.7472 6.07001 46.2772C3.77001 44.0872 1.99998 41.3372 0.97998 38.2472C0.33998 36.3272 0 34.2672 0 32.1272C0 27.7772 1.42002 23.7672 3.83002 20.5272V20.5172C5.81002 17.8372 8.46003 15.6872 11.53 14.3172C13.97 13.2272 16.66 12.6172 19.5 12.6172C20.29 12.6172 21.08 12.6672 21.84 12.7572C24.09 13.0272 26.23 13.6772 28.18 14.6472C28.93 15.0172 29.65 15.4372 30.34 15.8972C32.16 17.1172 33.76 18.6372 35.08 20.3772C36.18 21.8272 37.08 23.4472 37.74 25.1872C38.11 26.1572 38.4 27.1572 38.61 28.1972C38.88 29.4572 39.02 30.7772 39.02 32.1172Z" fill="#1F7DC1"/>
<path d="M28.2197 14.5875L21.9197 51.5475C21.1297 51.6475 20.3297 51.6975 19.5097 51.6975C18.1597 51.6975 16.8497 51.5575 15.5897 51.3075L19.5297 27.8975H9.19971L6.03973 46.3175C3.72973 44.1175 1.94969 41.3675 0.929688 38.2675L3.77972 20.4875V20.4775C5.76972 17.7875 8.4297 15.6375 11.5097 14.2575L9.71973 24.8075H19.9997L21.8697 12.6875C24.1197 12.9575 26.2597 13.6075 28.2197 14.5875Z" fill="white"/>
<path d="M34.2207 42.3599H36.2007C35.6407 43.2699 35.0107 44.1298 34.3207 44.9298H31.5507C28.4107 44.9298 26.0107 42.1399 26.4707 39.0399L30.3807 15.8398C32.2007 17.0698 33.8107 18.5898 35.1307 20.3298L34.4807 24.4799C34.4307 24.8399 34.7007 25.1599 35.0607 25.1599H37.8007C38.1707 26.1299 38.4607 27.1398 38.6807 28.1798H34.5607C34.1907 28.1798 33.8607 28.4398 33.7907 28.8098L31.6307 39.1699C31.2807 40.7999 32.5407 42.3599 34.2207 42.3599Z" fill="white"/>
<path d="M61.709 16.2578V17.2778C61.709 17.3778 61.709 17.3978 61.569 17.3978H60.679C60.599 17.3978 60.569 17.3778 60.559 17.3778C60.559 17.3778 60.5391 17.3478 60.5391 17.2778V16.2578H61.709Z" fill="#12274B"/>
<path d="M63.3319 16.26V17.28C63.3319 17.35 63.3219 17.37 63.3119 17.38C63.3119 17.38 63.2719 17.4 63.1919 17.4H62.1719V16.39C62.1719 16.31 62.1919 16.27 62.1919 16.27C62.1919 16.27 62.2219 16.25 62.2919 16.25H63.3319V16.26Z" fill="#12274B"/>
<path d="M97.1895 19.918C97.5995 20.198 97.7995 20.548 97.7995 20.968V27.0179H96.1495V21.158C96.1495 20.698 95.0995 20.4279 93.3395 20.4279C90.8195 20.4279 90.6195 20.9279 90.6195 21.0779V27.0079H87.9595V21.168C87.2095 21.028 86.5595 20.7379 86.0195 20.3079V27.6979H89.5295L89.8395 27.6879H99.7295V21.1279C99.7295 20.3979 98.8695 19.998 97.1895 19.918ZM94.1995 27.0179H92.5595V21.338C92.5595 21.158 92.6395 20.7579 93.3695 20.7579C94.1095 20.7579 94.1995 21.158 94.1995 21.338V27.0179Z" fill="#12274B"/>
<path d="M64.7301 21.9698V27.7098H61.2902V27.6898H58.8201L58.5101 27.6998H47.9102V21.1298C47.9102 20.4098 48.7701 19.9999 50.4501 19.9199C50.0501 20.1999 49.8401 20.5498 49.8401 20.9698V27.0198H58.2401V18.3398C58.8101 18.9998 59.4701 19.5899 60.1901 20.1099V27.0198H62.7701V21.4598C63.4101 21.6798 64.0601 21.8598 64.7301 21.9698Z" fill="#12274B"/>
<path d="M82.4881 29.5686V30.5886C82.4881 30.6886 82.4881 30.7086 82.3481 30.7086H81.3281V29.6986C81.3281 29.5586 81.3481 29.5586 81.4481 29.5586H82.4881V29.5686Z" fill="#12274B"/>
<path d="M84.1103 20.3086V27.6986H80.6603V27.6886H72.0803V28.4086C72.0803 28.7686 71.4803 28.9886 71.1303 29.0986H71.1203L71.1103 29.1086C70.5303 29.3286 69.8403 29.4386 69.0103 29.4386C68.1503 29.4386 67.4403 29.3386 66.8803 29.1386C66.5103 28.9986 66.0703 28.7686 66.0703 28.4686V22.1186C66.2603 22.1286 66.4403 22.1386 66.6303 22.1386C67.1103 22.1386 67.5703 22.1086 68.0103 22.0486V28.2986C68.0103 28.5486 68.1203 29.1386 69.1403 29.1386C69.5503 29.1386 69.8303 29.0486 70.0103 28.8486C70.1003 28.7486 70.2103 28.5686 70.1903 28.2786V21.5486C70.8903 21.3186 71.5403 21.0186 72.1603 20.6686V27.0186H73.8403V21.3786C74.5903 21.2386 75.2403 20.9586 75.7803 20.5286V27.0186H77.4603V21.3786C78.2003 21.2386 78.8603 20.9486 79.3903 20.5186V27.0186H82.1603V21.1786C82.9103 21.0286 83.5603 20.7386 84.1103 20.3086Z" fill="#12274B"/>
<path d="M80.9512 29.5664V30.5864C80.9512 30.6864 80.9512 30.7064 80.8112 30.7064H79.9212C79.7812 30.7064 79.7813 30.6864 79.7813 30.5864V29.5664H80.9512Z" fill="#12274B"/>
<path d="M51.9414 23.23L52.3914 22.78H53.2814V21.24C53.2814 20.92 53.6414 20.75 54.3614 20.75C55.0514 20.75 55.4014 20.89 55.4014 21.18V21.37C55.2814 21.43 55.1514 21.52 55.0114 21.64C54.9314 21.71 54.8514 21.79 54.7814 21.88V21.4C54.7814 21.24 54.6814 21.06 54.3814 21.06C53.9514 21.06 53.8914 21.27 53.8914 21.4V22.72H55.6014V23.24H51.9414V23.23Z" fill="#12274B"/>
<path d="M51.6317 3.58812C52.6917 3.58812 53.4651 3.79146 53.9517 4.19812C54.4384 4.60479 54.6817 5.23146 54.6817 6.07812C54.6817 6.92479 54.4317 7.54479 53.9317 7.93813C53.4384 8.33146 52.6784 8.52812 51.6517 8.52812H50.4117V10.5781H49.2317V3.58812H51.6317ZM51.7817 7.45812C52.4351 7.45812 52.8784 7.33479 53.1117 7.08812C53.3517 6.83479 53.4717 6.46812 53.4717 5.98812C53.4717 5.50146 53.3217 5.15812 53.0217 4.95812C52.7217 4.75812 52.2517 4.65812 51.6117 4.65812H50.4117V7.45812H51.7817ZM57.0891 9.17812C57.4091 9.49812 57.8124 9.65812 58.2991 9.65812C58.7857 9.65812 59.1857 9.49812 59.4991 9.17812C59.8191 8.85146 59.9791 8.43146 59.9791 7.91812C59.9791 7.40479 59.8191 6.98812 59.4991 6.66812C59.1857 6.34146 58.7857 6.17812 58.2991 6.17812C57.8124 6.17812 57.4091 6.34146 57.0891 6.66812C56.7757 6.98812 56.6191 7.40479 56.6191 7.91812C56.6191 8.43146 56.7757 8.85146 57.0891 9.17812ZM60.2991 9.86812C59.7657 10.3948 59.0991 10.6581 58.2991 10.6581C57.4991 10.6581 56.8324 10.3948 56.2991 9.86812C55.7657 9.33479 55.4991 8.68479 55.4991 7.91812C55.4991 7.15146 55.7657 6.50479 56.2991 5.97812C56.8324 5.44479 57.4991 5.17812 58.2991 5.17812C59.0991 5.17812 59.7657 5.44479 60.2991 5.97812C60.8324 6.50479 61.0991 7.15146 61.0991 7.91812C61.0991 8.68479 60.8324 9.33479 60.2991 9.86812ZM64.7941 10.5781H63.5141L61.6741 5.25812H62.8341L64.1541 9.27812L65.4741 5.25812H66.6341L67.9541 9.27812L69.2741 5.25812H70.4341L68.5941 10.5781H67.3141L66.0541 6.93812L64.7941 10.5781ZM76.3752 8.40812H72.2052C72.2319 8.79479 72.4086 9.10812 72.7352 9.34812C73.0619 9.58146 73.4352 9.69812 73.8552 9.69812C74.5219 9.69812 75.0286 9.48812 75.3752 9.06812L76.0152 9.76812C75.4419 10.3615 74.6952 10.6581 73.7752 10.6581C73.0286 10.6581 72.3919 10.4115 71.8652 9.91813C71.3452 9.41812 71.0852 8.75146 71.0852 7.91812C71.0852 7.07812 71.3519 6.41146 71.8852 5.91812C72.4186 5.42479 73.0452 5.17812 73.7652 5.17812C74.4919 5.17812 75.1086 5.39812 75.6152 5.83812C76.1219 6.27146 76.3752 6.87146 76.3752 7.63813V8.40812ZM72.2052 7.52812H75.2552C75.2552 7.08146 75.1152 6.73812 74.8352 6.49812C74.5552 6.25812 74.2086 6.13812 73.7952 6.13812C73.3886 6.13812 73.0219 6.26479 72.6952 6.51812C72.3686 6.76479 72.2052 7.10146 72.2052 7.52812ZM80.3969 6.30812C79.8435 6.30812 79.4269 6.48812 79.1469 6.84812C78.8669 7.20812 78.7269 7.69146 78.7269 8.29812V10.5781H77.6069V5.25812H78.7269V6.32812C78.9069 5.99479 79.1502 5.72146 79.4569 5.50812C79.7702 5.29479 80.1002 5.18479 80.4469 5.17812L80.4569 6.30812C80.4369 6.30812 80.4169 6.30812 80.3969 6.30812ZM86.5315 8.40812H82.3615C82.3882 8.79479 82.5648 9.10812 82.8915 9.34812C83.2182 9.58146 83.5915 9.69812 84.0115 9.69812C84.6782 9.69812 85.1848 9.48812 85.5315 9.06812L86.1715 9.76812C85.5982 10.3615 84.8515 10.6581 83.9315 10.6581C83.1848 10.6581 82.5482 10.4115 82.0215 9.91813C81.5015 9.41812 81.2415 8.75146 81.2415 7.91812C81.2415 7.07812 81.5082 6.41146 82.0415 5.91812C82.5748 5.42479 83.2015 5.17812 83.9215 5.17812C84.6482 5.17812 85.2648 5.39812 85.7715 5.83812C86.2782 6.27146 86.5315 6.87146 86.5315 7.63813V8.40812ZM82.3615 7.52812H85.4115C85.4115 7.08146 85.2715 6.73812 84.9915 6.49812C84.7115 6.25812 84.3648 6.13812 83.9515 6.13812C83.5448 6.13812 83.1782 6.26479 82.8515 6.51812C82.5248 6.76479 82.3615 7.10146 82.3615 7.52812ZM89.9331 10.6581C89.2598 10.6581 88.6731 10.4048 88.1731 9.89812C87.6731 9.39146 87.4231 8.72479 87.4231 7.89812C87.4231 7.07146 87.6798 6.41146 88.1931 5.91812C88.7065 5.42479 89.3165 5.17812 90.0231 5.17812C90.7365 5.17812 91.3098 5.47812 91.7431 6.07812V3.15812H92.8631V10.5781H91.7431V9.77812C91.3298 10.3648 90.7265 10.6581 89.9331 10.6581ZM88.5431 7.94812C88.5431 8.45479 88.7065 8.86812 89.0331 9.18812C89.3598 9.50812 89.7431 9.66812 90.1831 9.66812C90.6231 9.66812 90.9965 9.50812 91.3031 9.18812C91.6098 8.86146 91.7631 8.44479 91.7631 7.93813C91.7631 7.43146 91.6098 7.00812 91.3031 6.66812C90.9965 6.32812 90.6198 6.15812 90.1731 6.15812C89.7265 6.15812 89.3431 6.32812 89.0231 6.66812C88.7031 7.00812 88.5431 7.43479 88.5431 7.94812ZM100.076 5.17812C100.789 5.17812 101.399 5.42479 101.906 5.91812C102.413 6.41146 102.666 7.06812 102.666 7.88812C102.666 8.70812 102.413 9.37479 101.906 9.88812C101.406 10.4015 100.819 10.6581 100.146 10.6581C99.4793 10.6581 98.8793 10.3648 98.346 9.77812V10.5781H97.226V3.15812H98.346V6.18812C98.786 5.51479 99.3627 5.17812 100.076 5.17812ZM98.326 7.92812C98.326 8.43479 98.4793 8.85146 98.786 9.17812C99.0927 9.49812 99.466 9.65812 99.906 9.65812C100.346 9.65812 100.729 9.49812 101.056 9.17812C101.383 8.85812 101.546 8.44479 101.546 7.93813C101.546 7.42479 101.386 7.00146 101.066 6.66812C100.746 6.32812 100.363 6.15812 99.916 6.15812C99.4693 6.15812 99.0927 6.32812 98.786 6.66812C98.4793 7.00146 98.326 7.42146 98.326 7.92812ZM104.615 12.6981C104.128 12.6981 103.688 12.5215 103.295 12.1681L103.805 11.2581C104.038 11.4781 104.278 11.5881 104.525 11.5881C104.778 11.5881 104.981 11.4981 105.135 11.3181C105.295 11.1381 105.375 10.9415 105.375 10.7281C105.375 10.6348 104.658 8.81146 103.225 5.25812H104.425L106.015 9.17812L107.605 5.25812H108.805L106.225 11.5781C106.071 11.9248 105.851 12.1981 105.565 12.3981C105.278 12.5981 104.961 12.6981 104.615 12.6981Z" fill="#333333"/>
</svg>
