<svg width="85" height="82" viewBox="0 0 85 82" fill="none" xmlns="http://www.w3.org/2000/svg">
<path d="M39.7812 35.3376C42.8412 33.2376 46.0412 31.3776 49.4812 29.9576C49.4112 30.2676 49.3712 30.5976 49.2712 30.8976C48.6012 32.9276 47.9112 34.9576 47.2412 36.9976C47.1412 37.2876 47.0812 37.5876 46.9712 37.9976C47.3112 37.9276 47.5112 37.9076 47.6912 37.8476C49.9712 37.0876 52.2613 36.3276 54.5413 35.5576C54.7513 35.4876 54.9412 35.3376 55.1412 35.2276C55.4212 35.0276 55.7312 34.8576 55.9712 34.6276C58.9512 31.6876 61.9212 28.7376 64.8912 25.7876C67.4912 25.6776 70.1012 25.5676 72.7012 25.4576C72.9912 25.4476 73.2711 25.4576 73.6711 25.4576C73.6711 28.7876 73.6711 32.0576 73.6711 35.3276C73.6611 35.7076 73.6512 36.0875 73.6512 36.4675C73.6512 45.1175 73.6512 53.7676 73.6512 62.4176C73.6512 62.7576 73.6512 63.1076 73.6512 63.5676C73.1212 63.5676 72.6912 63.5676 72.2612 63.5676C70.3012 63.6176 68.3312 63.5876 66.3912 63.7576C64.2812 63.9376 62.1612 64.2176 60.0812 64.6376C53.9112 65.8676 48.1412 68.1776 42.7612 71.4276C41.7612 72.0276 40.7813 72.6476 39.7913 73.2576C39.7813 60.6176 39.7812 47.9776 39.7812 35.3376Z" fill="#F0F0F2"/>
<path d="M39.7823 35.3375C39.7823 47.9775 39.7823 60.6175 39.7823 73.2575V73.2675C39.5023 73.1175 39.2123 72.9775 38.9423 72.8275C36.1223 71.2775 33.3923 69.5475 30.4823 68.2075C23.1423 64.8475 15.4023 63.3175 7.31226 63.5775C6.88226 63.5775 6.45224 63.5775 5.92224 63.5775C5.92224 63.1175 5.92224 62.7775 5.92224 62.4275C5.91224 53.3975 5.90234 44.3575 5.90234 35.3275C5.90234 32.0675 5.90234 28.8175 5.90234 25.4775C18.3023 25.0975 29.5924 28.2975 39.7823 35.3375ZM17.9124 49.4675C16.0124 49.4575 14.1123 49.4675 12.2123 49.4375C11.7223 49.4275 11.5422 49.5975 11.5522 50.0975C11.5822 51.7675 11.5723 53.4275 11.5823 55.0975C11.5823 56.0175 11.5823 56.9475 11.5823 57.8475C14.4623 57.8475 17.2123 57.8475 19.9723 57.8475C19.9723 55.0375 19.9723 52.2875 19.9723 49.4675C19.2423 49.4675 18.5824 49.4675 17.9124 49.4675ZM17.9124 35.3575C16.0124 35.3475 14.1123 35.3575 12.2123 35.3275C11.7223 35.3175 11.5422 35.4875 11.5522 35.9875C11.5822 37.6575 11.5723 39.3175 11.5823 40.9875C11.5823 41.9075 11.5823 42.8375 11.5823 43.7375C14.4623 43.7375 17.2123 43.7375 19.9723 43.7375C19.9723 40.9275 19.9723 38.1775 19.9723 35.3575C19.2423 35.3575 18.5824 35.3575 17.9124 35.3575ZM29.8123 45.2175C31.0723 45.2175 32.3423 45.2175 33.6023 45.2175C35.5723 45.2175 35.5423 45.2175 35.5623 43.2775C35.5723 42.5775 35.3624 42.3675 34.6624 42.3775C31.8724 42.4175 29.0823 42.3875 26.2823 42.3875C24.1623 42.3875 24.1723 42.3875 24.2423 44.5075C24.2623 45.0375 24.4223 45.2275 24.9623 45.2175C26.5823 45.1975 28.1923 45.2175 29.8123 45.2175ZM29.9523 56.5075C28.6923 56.5075 27.4224 56.5075 26.1624 56.5075C24.2424 56.5075 24.2723 56.5075 24.2423 58.3975C24.2323 59.1175 24.4222 59.3575 25.1722 59.3475C27.9622 59.3075 30.7522 59.3275 33.5522 59.3275C35.6122 59.3275 35.5823 59.3275 35.5623 57.2675C35.5523 56.6075 35.2923 56.4875 34.7223 56.4975C33.1323 56.5175 31.5423 56.5075 29.9523 56.5075ZM31.3123 39.5675C32.0723 39.5675 32.8423 39.5675 33.6023 39.5675C35.5923 39.5675 35.5722 39.5675 35.5522 37.5375C35.5522 36.9175 35.3623 36.7175 34.7423 36.7275C32.8623 36.7575 30.9823 36.7375 29.1023 36.7375C26.9823 36.7375 27.0023 36.7375 27.0623 38.8575C27.0823 39.3875 27.2423 39.5875 27.7823 39.5675C28.9623 39.5475 30.1323 39.5675 31.3123 39.5675ZM31.4023 50.8575C30.6123 50.8575 29.8123 50.8575 29.0223 50.8575C27.0323 50.8575 27.0523 50.8575 27.0623 52.8875C27.0623 53.5075 27.2523 53.7075 27.8723 53.6975C29.7523 53.6675 31.6323 53.6875 33.5123 53.6875C35.6323 53.6875 35.6122 53.6875 35.5522 51.5675C35.5322 51.0375 35.3723 50.8375 34.8323 50.8575C33.6923 50.8775 32.5423 50.8575 31.4023 50.8575Z" fill="#E4EBF7"/>
<path d="M79.2609 76.2574C79.2609 78.1074 79.2609 79.9474 79.2609 81.8474C52.9509 81.8474 26.6708 81.8474 0.300781 81.8474C0.300781 79.9874 0.300781 78.1174 0.300781 76.2574C11.5108 76.2574 22.7108 76.2574 33.9208 76.2574C34.2308 76.2574 34.5408 76.1574 34.8508 76.1074C36.2908 76.9674 37.7208 77.8274 39.1708 78.6674C39.4108 78.8074 39.7108 78.8374 39.9808 78.9274C41.4908 78.0274 43.0009 77.1274 44.5109 76.2274C44.8009 76.2374 45.1009 76.2574 45.3909 76.2574C56.6709 76.2574 67.9609 76.2574 79.2609 76.2574Z" fill="#00A4C4"/>
<path d="M34.8417 76.1081C34.5317 76.1581 34.2217 76.2581 33.9117 76.2581C22.7017 76.2681 11.5017 76.2581 0.291748 76.2581C0.281748 76.0581 0.261719 75.8481 0.261719 75.6481C0.261719 62.4281 0.261719 49.2081 0.261719 35.9881C0.261719 35.8181 0.261719 35.6381 0.261719 35.3281C2.15172 35.3281 4.02171 35.3281 5.88171 35.3281C5.89171 44.3581 5.90173 53.3981 5.90173 62.4281C5.90173 62.7681 5.90173 63.1181 5.90173 63.5781C6.43173 63.5781 6.86175 63.5781 7.29175 63.5781C7.29175 65.4181 7.29175 67.2581 7.29175 69.2081C7.79175 69.2081 8.17175 69.1881 8.54175 69.2081C11.2017 69.3981 13.8717 69.4481 16.5017 69.8081C20.4817 70.3581 24.3917 71.3381 28.1017 72.8981C30.4017 73.8681 32.6017 75.0381 34.8417 76.1081Z" fill="#4FC4D8"/>
<path d="M79.26 76.2579C67.97 76.2579 56.67 76.2579 45.38 76.2579C45.09 76.2579 44.79 76.2379 44.5 76.2279C44.64 76.1179 44.7599 75.9879 44.9199 75.9079C52.0699 72.0679 59.66 69.7879 67.78 69.3679C69.23 69.2879 70.69 69.2079 72.26 69.1279C72.26 67.2579 72.26 65.4179 72.26 63.5779C72.69 63.5779 73.12 63.5779 73.65 63.5779C73.65 63.1179 73.65 62.7779 73.65 62.4279C73.65 53.7779 73.65 45.1279 73.65 36.4779C73.65 36.0979 73.6699 35.7179 73.6699 35.3379C75.5099 35.3379 77.36 35.3379 79.26 35.3379C79.27 35.5779 79.29 35.7379 79.29 35.9079C79.29 49.1879 79.29 62.4679 79.29 75.7379C79.28 75.9079 79.27 76.0879 79.26 76.2579Z" fill="#4FC4D8"/>
<path d="M51.7305 27.708C51.8705 27.528 51.9805 27.318 52.1405 27.158C57.8105 21.478 63.4805 15.808 69.1505 10.138C69.2305 10.058 69.3304 9.98797 69.4204 9.91797C70.5304 11.098 71.6505 12.268 72.7605 13.448C72.5705 13.728 72.4104 14.048 72.1704 14.288C66.7804 19.698 61.3805 25.088 55.9805 30.488C55.7605 30.708 55.5205 30.908 55.2805 31.118C54.0505 29.938 52.8905 28.818 51.7305 27.708Z" fill="#226CA3"/>
<path d="M51.7319 27.7092C52.8919 28.8192 54.062 29.9392 55.292 31.1192C55.532 30.8992 55.7719 30.7092 55.9919 30.4892C61.3919 25.0892 66.7919 19.6892 72.1819 14.2892C72.4219 14.0492 72.572 13.7292 72.772 13.4492C73.512 14.1592 74.2419 14.8692 74.9819 15.5792C71.8319 18.7492 68.682 21.9092 65.532 25.0792C65.302 25.3092 65.102 25.5492 64.882 25.7892C61.912 28.7392 58.9419 31.6892 55.9619 34.6292C55.7219 34.8692 55.412 35.0292 55.132 35.2292C53.312 33.4192 51.4919 31.6092 49.6719 29.7992C50.3619 29.1092 51.0519 28.4092 51.7319 27.7092Z" fill="#288ECD"/>
<path d="M73.7812 5.62833C75.2713 4.12833 76.7112 2.58834 78.2512 1.13834C79.8512 -0.37166 82.1912 -0.301663 83.7212 1.19834C85.2812 2.73834 85.3813 5.10834 83.8413 6.72834C82.3913 8.25834 80.8513 9.70833 79.3513 11.1883C77.4913 9.33833 75.6413 7.48833 73.7812 5.62833Z" fill="#BEC8E0"/>
<path d="M73.7798 5.62891C75.6398 7.48891 77.4899 9.34891 79.3499 11.1989C77.8899 12.6589 76.4297 14.1189 74.9797 15.5689C74.2497 14.8589 73.5098 14.1489 72.7698 13.4389C71.6598 12.2589 70.5397 11.0889 69.4297 9.90891C70.8797 8.4889 72.3298 7.05891 73.7798 5.62891Z" fill="#D4DBEF"/>
<path d="M49.6826 29.7988C51.5026 31.6088 53.3227 33.4188 55.1427 35.2288C54.9427 35.3388 54.7527 35.4888 54.5427 35.5588C52.2627 36.3288 49.9826 37.0888 47.6926 37.8488C47.5126 37.9088 47.3127 37.9288 46.9727 37.9988C47.0827 37.5888 47.1427 37.2888 47.2427 36.9988C47.9227 34.9688 48.6027 32.9388 49.2727 30.8988C49.3727 30.5988 49.4127 30.2688 49.4827 29.9588C49.5527 29.9088 49.6126 29.8588 49.6826 29.7988Z" fill="#F0B9A1"/>
<path d="M72.2503 63.5781C72.2503 65.4181 72.2503 67.2582 72.2503 69.1282C70.6803 69.2082 69.2203 69.2882 67.7703 69.3682C59.6503 69.7882 52.0603 72.0781 44.9103 75.9081C44.7603 75.9881 44.6303 76.1181 44.4903 76.2281C42.9803 77.1281 41.4703 78.0282 39.9603 78.9282C39.8903 78.6282 39.7803 78.3281 39.7703 78.0181C39.7503 76.4381 39.7603 74.8481 39.7603 73.2681V73.2582C40.7503 72.6482 41.7303 72.0282 42.7303 71.4282C48.1203 68.1782 53.8802 65.8682 60.0502 64.6382C62.1302 64.2282 64.2503 63.9482 66.3603 63.7582C68.3303 63.5882 70.3003 63.6281 72.2503 63.5781Z" fill="#D7DFF1"/>
<path d="M39.7709 73.269C39.7709 74.849 39.7609 76.439 39.7809 78.019C39.7809 78.319 39.9008 78.629 39.9708 78.929C39.7008 78.849 39.4009 78.809 39.1609 78.669C37.7109 77.829 36.2808 76.969 34.8408 76.109C32.6008 75.029 30.4008 73.869 28.1108 72.909C24.3908 71.349 20.4909 70.369 16.5109 69.819C13.8809 69.449 11.2008 69.399 8.55078 69.219C8.18078 69.189 7.81078 69.219 7.30078 69.219C7.30078 67.269 7.30078 65.429 7.30078 63.589C15.3808 63.339 23.1308 64.859 30.4608 68.219C33.3708 69.549 36.1108 71.289 38.9208 72.839C39.2108 72.979 39.4909 73.119 39.7709 73.269Z" fill="#D4DBEF"/>
<path d="M11.5812 40.9885C11.5712 39.3185 11.5812 37.6585 11.5512 35.9885C11.5412 35.4885 11.7212 35.3185 12.2112 35.3285C14.1112 35.3585 16.0113 35.3485 17.9113 35.3585C17.9113 36.9685 17.8813 38.5785 17.9113 40.1885C17.9213 40.8085 17.7212 40.9985 17.1112 40.9885C15.2712 40.9585 13.4212 40.9885 11.5812 40.9885Z" fill="#89B2DE"/>
<path d="M11.5803 40.9874C13.4203 40.9874 15.2704 40.9574 17.1104 40.9874C17.7204 40.9974 17.9304 40.7974 17.9104 40.1874C17.8804 38.5774 17.9004 36.9674 17.9104 35.3574C18.5804 35.3574 19.2403 35.3574 19.9603 35.3574C19.9603 38.1774 19.9603 40.9174 19.9603 43.7374C17.2003 43.7374 14.4603 43.7374 11.5703 43.7374C11.5803 42.8374 11.5803 41.9074 11.5803 40.9874Z" fill="#779ED3"/>
<path d="M11.5812 55.0979C11.5712 53.4279 11.5812 51.7679 11.5512 50.0979C11.5412 49.5979 11.7212 49.4279 12.2112 49.4379C14.1112 49.4679 16.0113 49.4579 17.9113 49.4679C17.9113 51.0779 17.8813 52.6879 17.9113 54.2979C17.9213 54.9179 17.7212 55.1079 17.1112 55.0979C15.2712 55.0779 13.4212 55.0979 11.5812 55.0979Z" fill="#89B2DE"/>
<path d="M11.5803 55.0988C13.4203 55.0988 15.2704 55.0688 17.1104 55.0988C17.7204 55.1088 17.9304 54.9088 17.9104 54.2988C17.8804 52.6888 17.9004 51.0788 17.9104 49.4688C18.5804 49.4688 19.2403 49.4688 19.9603 49.4688C19.9603 52.2887 19.9603 55.0288 19.9603 57.8488C17.2003 57.8488 14.4603 57.8488 11.5703 57.8488C11.5803 56.9488 11.5803 56.0288 11.5803 55.0988Z" fill="#779ED3"/>
<path d="M29.8098 45.219C28.1898 45.219 26.5798 45.199 24.9598 45.229C24.4198 45.239 24.2599 45.049 24.2399 44.519C24.1799 42.399 24.1599 42.399 26.2799 42.399C29.0699 42.399 31.8599 42.419 34.6599 42.389C35.3599 42.379 35.5698 42.589 35.5598 43.289C35.5398 45.229 35.5699 45.229 33.5999 45.229C32.3399 45.219 31.0698 45.219 29.8098 45.219Z" fill="#C9CCE6"/>
<path d="M29.9508 56.5086C31.5408 56.5086 33.1208 56.5286 34.7108 56.4986C35.2808 56.4886 35.5508 56.6086 35.5508 57.2686C35.5708 59.3286 35.6009 59.3286 33.5409 59.3286C30.7509 59.3286 27.9609 59.3086 25.1609 59.3486C24.4109 59.3586 24.2208 59.1186 24.2308 58.3986C24.2608 56.5186 24.2309 56.5086 26.1509 56.5086C27.4209 56.5086 28.6908 56.5086 29.9508 56.5086Z" fill="#C9CCE6"/>
<path d="M31.3102 39.5686C30.1302 39.5686 28.9603 39.5486 27.7803 39.5786C27.2403 39.5886 27.0802 39.3986 27.0602 38.8686C27.0002 36.7486 26.9802 36.7486 29.1002 36.7486C30.9802 36.7486 32.8602 36.7686 34.7402 36.7386C35.3602 36.7286 35.5502 36.9286 35.5502 37.5486C35.5602 39.5786 35.5902 39.5786 33.6002 39.5786C32.8402 39.5686 32.0702 39.5686 31.3102 39.5686Z" fill="#C9CCE6"/>
<path d="M31.4021 50.858C32.5521 50.858 33.6921 50.878 34.8421 50.848C35.3821 50.838 35.542 51.0281 35.562 51.5581C35.622 53.6781 35.6421 53.678 33.5221 53.678C31.6421 53.678 29.7621 53.6581 27.8821 53.6881C27.2621 53.6981 27.082 53.4981 27.072 52.8781C27.062 50.8481 27.0321 50.848 29.0321 50.848C29.8121 50.858 30.6021 50.858 31.4021 50.858Z" fill="#C9CCE6"/>
<path d="M54.4403 56.9296C53.4703 56.9296 52.5403 56.9596 51.6203 56.9196C50.7903 56.8896 50.1003 56.1296 50.1003 55.2596C50.0903 53.9796 50.0903 52.6996 50.1103 51.4196C50.1103 51.2596 50.2003 51.0696 50.3103 50.9496C52.0603 49.1796 53.8203 47.4296 55.5803 45.6696C55.8403 45.4096 56.0903 45.4096 56.3503 45.6696C58.1103 47.4296 59.8703 49.1796 61.6203 50.9496C61.7403 51.0696 61.8203 51.2696 61.8203 51.4396C61.8403 52.6996 61.8303 53.9496 61.8303 55.2096C61.8203 56.2096 61.0803 56.9396 60.0803 56.9396C59.2303 56.9396 58.3803 56.9396 57.4903 56.9396C57.4903 55.5596 57.4903 54.1996 57.4903 52.8096C56.4703 52.8096 55.4803 52.8096 54.4603 52.8096C54.4403 54.1896 54.4403 55.5496 54.4403 56.9296Z" fill="#BEC8E0"/>
<path d="M59.4504 44.2691C59.4504 43.9991 59.4404 43.7191 59.4504 43.4491C59.4804 42.7191 60.0905 42.2791 60.7205 42.5291C61.0705 42.6591 61.3004 42.9991 61.3004 43.3991C61.3004 44.2691 61.2904 45.1391 61.3104 45.9991C61.3104 46.1291 61.3804 46.2791 61.4604 46.3691C62.2004 47.1191 62.9504 47.8591 63.6904 48.6091C64.0404 48.9591 64.1204 49.3491 63.9404 49.7291C63.6504 50.3291 62.9304 50.4491 62.4404 49.9691C61.6904 49.2391 60.9504 48.4791 60.2004 47.7391C58.9504 46.4891 57.7004 45.2391 56.4504 43.9891C56.0704 43.6091 55.8104 43.6091 55.4204 43.9991C53.4504 45.9691 51.4905 47.9291 49.5205 49.8991C49.2405 50.1791 48.9405 50.3491 48.5305 50.2291C47.8605 50.0291 47.6104 49.2691 48.0704 48.7491C48.4204 48.3591 48.8004 47.9992 49.1704 47.6292C50.8204 45.9792 52.4705 44.3291 54.1205 42.6791C55.2005 41.5991 56.6705 41.5991 57.7505 42.6791C58.2905 43.2191 58.8305 43.7691 59.3705 44.3091C59.4105 44.2891 59.4304 44.2791 59.4504 44.2691Z" fill="#D4DBEF"/>
</svg>
