<svg width="153" height="72" viewBox="0 0 153 72" fill="none" xmlns="http://www.w3.org/2000/svg">
<path d="M0.29126 56.6875H4.87128L8.73126 64.6775L12.5713 56.6875H17.1513V71.0875H13.3913V62.5475L10.1013 69.6775H7.3313L4.04126 62.5475V71.0875H0.28125V56.6875H0.29126Z" fill="#225886"/>
<path d="M30.1209 71.0875L29.2809 68.7875H23.4709L22.6109 71.0875H18.2109L24.3509 56.6875H28.7509L34.6909 71.0875H30.1209ZM24.6509 65.6675H28.1409L26.4209 60.9675L24.6509 65.6675Z" fill="#225886"/>
<path d="M46.0905 57.5775C47.2605 58.1775 48.1705 59.0175 48.8105 60.1075C49.4505 61.1975 49.7805 62.4575 49.7805 63.8775C49.7805 65.2975 49.4505 66.5575 48.7905 67.6575C48.1305 68.7575 47.2105 69.5975 46.0205 70.1975C44.8305 70.7975 43.4505 71.0875 41.8905 71.0875H35.7305V56.6875H42.0405C43.5705 56.6875 44.9205 56.9875 46.0905 57.5775ZM44.5205 66.6875C45.1205 65.9875 45.4205 65.0675 45.4205 63.9175C45.4205 62.7675 45.1005 61.8375 44.4505 61.1275C43.8105 60.4175 42.9705 60.0575 41.9405 60.0575H39.9905V67.7375H42.1505C43.1305 67.7375 43.9105 67.3875 44.5205 66.6875Z" fill="#225886"/>
<path d="M59.8228 71.0875L57.9128 67.2075H55.6528V71.0875H51.3828V56.6875H58.1028C60.0328 56.6875 61.5328 57.1375 62.5928 58.0275C63.6528 58.9175 64.1828 60.1775 64.1828 61.8075C64.1828 62.8575 63.9728 63.7775 63.5528 64.5475C63.1328 65.3175 62.5328 65.9375 61.7528 66.3875L64.6728 71.0875H59.8228ZM55.6528 63.9175H58.0928C58.7328 63.9175 59.2328 63.7475 59.5828 63.4075C59.9328 63.0675 60.1028 62.5675 60.1028 61.9275C60.1028 61.2975 59.9328 60.8175 59.5828 60.4775C59.2328 60.1375 58.7328 59.9775 58.0928 59.9775H55.6528V63.9175Z" fill="#225886"/>
<path d="M76.8123 71.0875L75.9723 68.7875H70.1623L69.3023 71.0875H64.9023L71.0423 56.6875H75.4423L81.3823 71.0875H76.8123ZM71.3423 65.6675H74.8323L73.1123 60.9675L71.3423 65.6675Z" fill="#225886"/>
<path d="M90.2214 60.1789C89.3014 59.8689 88.5514 59.7089 87.9614 59.7089C87.5914 59.7089 87.3014 59.7789 87.0914 59.9289C86.8814 60.0689 86.7714 60.2789 86.7714 60.5589C86.7714 60.9389 86.9814 61.2389 87.3914 61.4489C87.8014 61.6589 88.4514 61.8889 89.3414 62.1389C90.3514 62.4289 91.1914 62.7189 91.8514 63.0089C92.5114 63.2989 93.0814 63.7489 93.5714 64.3589C94.0614 64.9589 94.3014 65.7589 94.3014 66.7389C94.3014 67.7389 94.0414 68.5789 93.5114 69.2789C92.9814 69.9689 92.2714 70.4889 91.3714 70.8289C90.4714 71.1689 89.4714 71.3389 88.3614 71.3389C87.1314 71.3389 85.8914 71.1289 84.6514 70.7089C83.4114 70.2889 82.3414 69.7189 81.4414 68.9989L83.0414 65.7489C83.7714 66.3789 84.6514 66.9089 85.7014 67.3389C86.7514 67.7689 87.6514 67.9889 88.4014 67.9889C88.8714 67.9889 89.2314 67.8989 89.4914 67.7189C89.7514 67.5389 89.8814 67.2889 89.8814 66.9589C89.8814 66.5589 89.6714 66.2589 89.2414 66.0489C88.8114 65.8389 88.1614 65.6189 87.2714 65.3789C86.2714 65.1189 85.4414 64.8489 84.7814 64.5689C84.1214 64.2889 83.5514 63.8489 83.0814 63.2689C82.6014 62.6789 82.3614 61.9089 82.3614 60.9489C82.3614 60.0189 82.6114 59.2089 83.1014 58.5189C83.5914 57.8289 84.2914 57.2989 85.1814 56.9289C86.0814 56.5589 87.1214 56.3789 88.3114 56.3789C89.3914 56.3789 90.4714 56.5289 91.5414 56.8389C92.6114 57.1489 93.5414 57.5589 94.3314 58.0589L92.7514 61.3489C91.9814 60.8789 91.1414 60.4989 90.2214 60.1789Z" fill="#225886"/>
<path d="M106.363 71.0875L105.523 68.7875H99.7131L98.8531 71.0875H94.4531L100.593 56.6875H104.993L110.933 71.0875H106.363ZM100.903 65.6675H104.393L102.673 60.9675L100.903 65.6675Z" fill="#225886"/>
<path d="M109.281 56.6875H121.931V60.0975H117.741V71.0875H113.451V60.0975H109.281V56.6875Z" fill="#225886"/>
<path d="M132.203 71.0875L131.363 68.7875H125.553L124.693 71.0875H120.293L126.433 56.6875H130.833L136.773 71.0875H132.203ZM126.743 65.6675H130.233L128.513 60.9675L126.743 65.6675Z" fill="#225886"/>
<path d="M152.17 71.0875H147.06L143.69 65.7875L142.09 67.5575V71.0875H137.82V56.6875H142.09V62.4575L146.92 56.6875H151.85L146.61 62.5175L152.17 71.0875Z" fill="#225886"/>
<path d="M138.529 31.4805V41.3205H132.589L126.539 45.1505H152.269L152.279 31.4805H138.529ZM148.159 41.1405H142.619V35.6705H148.159V41.1405Z" fill="#00A4C4"/>
<path d="M12.63 29.6788V26.4688H4.90002V32.8887H0V36.0988H12.63V32.8887H8.15002V29.6788H12.63Z" fill="#00A4C4"/>
<path d="M79.3902 31.4805V45.0105H71.6602V41.4005H74.9702L74.9602 31.4805H79.3902Z" fill="#00A4C4"/>
<path d="M68.9417 44.7791H0.0117188V40.9591H16.6217V26.2891H20.7717V40.9591H48.7717V31.4391H52.8817V40.9591H56.8517V31.4391H60.9617V40.9591H64.8217V31.4391H68.9317L68.9417 44.7791Z" fill="#00A4C4"/>
<path d="M40.0283 35.0384L36.8983 38.1784L33.9883 35.2684L34.2183 35.0384L33.9883 34.8084L36.8983 31.8984L40.0283 35.0384Z" fill="#00A4C4"/>
<path d="M34.2488 35.0384L31.1088 38.1784L27.9688 35.0384L31.1088 31.8984L34.0088 34.8084L34.2488 35.0384Z" fill="#00A4C4"/>
<path d="M109.222 45.1505H81.8516V41.4405H91.5116V35.4305H81.8516V31.4805H95.2316V41.3205H102.872L109.222 45.1505Z" fill="#00A4C4"/>
<path d="M99.8516 21.8094C99.8516 21.8094 102.772 9.34937 112.432 0.359375C115.472 4.18937 128.112 20.1094 128.112 20.1094C128.112 20.1094 119.182 28.9794 115.042 41.4994C111.882 37.1794 99.8516 21.8094 99.8516 21.8094Z" fill="#225886"/>
<path d="M117.472 41.26C123.002 28.74 134.972 20.55 134.972 20.55L118.742 0L116.422 1.87L130.502 19.83C130.512 19.82 123.942 23.18 117.472 41.26Z" fill="#225886"/>
<path d="M124.03 4.31047L127.01 2.73047L143.05 23.2105C143.05 23.2105 131.5 26.1905 118.93 41.3805C118.93 41.3805 122.58 31.3505 137.53 21.5105C135.46 19.0705 124.03 4.31047 124.03 4.31047Z" fill="#225886"/>
</svg>
