<svg width="77" height="82" viewBox="0 0 77 82" fill="none" xmlns="http://www.w3.org/2000/svg">
<path d="M68.1814 49.0678C65.0114 45.0878 60.8315 42.7078 55.8315 41.7878C55.5015 41.7278 55.1816 41.5978 54.8516 41.5078C51.1716 41.7778 47.7914 42.8978 44.7214 44.9778C44.4614 45.1478 44.1814 45.2878 43.9114 45.4478C43.3214 45.9378 42.7213 46.4278 42.1313 46.9178C41.3513 47.8378 40.5115 48.7178 39.8015 49.6878C37.1415 53.2878 35.7915 57.3278 35.7815 61.8178C35.7815 62.2878 35.7715 62.7678 35.7715 63.2478C36.0815 64.9778 36.3914 66.7078 36.7214 68.4978H35.8115C25.8415 68.4978 15.8814 68.4978 5.91138 68.4978C5.75138 68.4978 5.60141 68.5178 5.44141 68.5278C5.83141 68.5578 6.22133 68.6278 6.61133 68.6278C16.4713 68.6278 26.3314 68.6378 36.2014 68.6178C36.7514 68.6178 37.0214 68.7578 37.2214 69.3078C38.0014 71.3978 39.1513 73.2878 40.6113 74.9778C43.8113 78.6778 47.8114 80.9978 52.6414 81.8578L55.6814 81.8678C55.9514 81.8178 56.2215 81.7578 56.4915 81.7078C60.4115 80.9278 63.8113 79.0878 66.6213 76.2978C69.9313 73.0178 71.9314 69.0478 72.4814 64.3778C73.1714 58.6478 71.7414 53.5378 68.1814 49.0678ZM59.1614 76.3978C57.8114 76.6678 56.3915 76.5978 55.0015 76.6878C49.2915 76.0678 45.0816 73.2378 42.5916 68.0578C38.4416 59.4178 43.8315 48.9278 53.2715 47.1878C53.6615 47.1178 54.0514 47.0678 54.4514 47.0278C54.5814 47.0078 54.7116 46.9978 54.8416 46.9778C55.0516 46.9478 55.2614 46.9278 55.4714 46.9078C55.5414 46.9078 55.6114 46.8978 55.6814 46.8878C56.0714 46.8578 56.4515 46.8578 56.8315 46.8678C56.9615 46.8678 57.0814 46.8778 57.2114 46.8778C57.3214 46.8778 57.4415 46.8878 57.5515 46.8978C57.6515 46.9078 57.7416 46.9178 57.8416 46.9278C57.8716 46.9278 57.8914 46.9278 57.9214 46.9378C57.9814 46.9478 58.0416 46.9478 58.1016 46.9578C58.1816 46.9678 58.2616 46.9778 58.3416 46.9878C58.4216 46.9978 58.4915 47.0078 58.5715 47.0278C58.6815 47.0478 58.8014 47.0678 58.9114 47.0878C59.1014 47.1178 59.2914 47.1678 59.4814 47.2078C59.5314 47.2178 59.5813 47.2278 59.6313 47.2478C59.8113 47.2978 60.0014 47.3478 60.1814 47.3978C60.2414 47.4178 60.2916 47.4278 60.3516 47.4478C60.5216 47.4978 60.6916 47.5578 60.8516 47.6178C60.9016 47.6378 60.9515 47.6478 61.0015 47.6678C61.2915 47.7778 61.5813 47.8878 61.8713 48.0178C66.7913 50.1878 69.8715 53.9378 70.8315 59.2278C72.2815 67.2578 66.9214 74.8578 59.1614 76.3978Z" fill="#226CA3"/>
<path d="M76.4197 63.3578C75.6897 72.4578 69.1398 79.7978 60.5198 81.6578C60.2098 81.7278 59.8999 81.7578 59.5999 81.8478L55.6797 81.8378C55.9497 81.7878 56.2197 81.7278 56.4897 81.6778C60.4097 80.8978 63.8096 79.0578 66.6196 76.2678C69.9296 72.9878 71.9297 69.0178 72.4797 64.3478C73.1597 58.6478 71.7297 53.5378 68.1697 49.0678C64.9997 45.0878 60.8198 42.7078 55.8198 41.7878C55.4898 41.7278 55.1698 41.5978 54.8398 41.5078C56.6498 41.6378 58.4798 41.6578 60.2698 41.9278C62.7798 42.3078 65.0397 43.4378 67.2097 44.7178C68.4797 45.7678 69.7398 46.8178 71.0098 47.8678C71.9298 49.1478 72.9297 50.3778 73.7397 51.7178C75.9097 55.2978 76.7497 59.2378 76.4197 63.3578Z" fill="#288ECD"/>
<path d="M49.4419 1.45813C49.6519 1.24813 49.862 1.03812 50.082 0.828125C50.192 0.828125 50.2919 0.828125 50.4019 0.828125C50.4119 0.858125 50.4119 0.898131 50.4219 0.928131C50.4719 0.898131 50.522 0.858125 50.562 0.828125C51.252 0.828125 51.9418 0.828125 52.6218 0.828125C52.6818 0.928125 52.722 1.07813 52.812 1.11813C54.242 1.83813 54.792 3.05813 54.812 4.57812C54.822 5.12813 54.8421 5.67812 54.8521 6.22812C54.8521 7.59812 54.8518 8.96813 54.8618 10.3381C54.6518 11.1881 54.4519 12.0481 54.2419 12.8981C54.0619 13.0881 53.8919 13.2881 53.7119 13.4781C52.5719 14.5981 50.4619 14.7281 49.4219 13.7081C50.6519 13.1881 50.972 12.0681 51.022 10.9281C51.112 8.68813 51.102 6.42811 51.022 4.18811C50.962 3.06811 50.5819 2.01813 49.4419 1.45813Z" fill="#D4D9EC"/>
<path d="M21.4795 0.828125C21.5495 0.938125 21.5995 1.09811 21.6995 1.15811C22.9195 1.87811 23.6096 2.89812 23.5596 4.35812C23.5396 4.98812 23.5796 5.61814 23.5896 6.24814C23.5896 7.61814 23.5996 8.98812 23.5996 10.3581C23.4196 11.2081 23.2396 12.0581 23.0496 12.9081C21.6296 14.5281 19.9894 14.8681 18.4294 13.8881C19.0394 13.1281 19.7095 12.4181 19.7295 11.3481C19.7695 9.08811 19.8696 6.81814 19.8496 4.55814C19.8396 3.31814 19.4595 2.15812 18.2695 1.47812C18.4395 1.26812 18.5995 1.05811 18.7695 0.848114C19.5095 0.848114 20.2495 0.848114 20.9895 0.848114C21.0395 0.888114 21.0794 0.91813 21.1294 0.95813C21.1394 0.91813 21.1394 0.888114 21.1494 0.848114C21.2694 0.828114 21.3795 0.828125 21.4795 0.828125Z" fill="#D5DBEF"/>
<path d="M67.2195 44.7183C65.0495 43.4383 62.7995 42.2983 60.2795 41.9283C58.4895 41.6583 56.6596 41.6383 54.8496 41.5083C51.1696 41.7783 47.7895 42.8983 44.7195 44.9783C44.4595 45.1483 44.1794 45.2883 43.9094 45.4483C43.8994 44.5583 43.9194 43.6682 43.8794 42.7682C43.8494 41.9882 43.3596 41.5083 42.5796 41.4883C41.5796 41.4683 40.5896 41.4983 39.5896 41.5083C38.7796 41.7283 38.4695 42.2883 38.4695 43.0883C38.4795 43.8283 38.4795 44.5583 38.4695 45.2983C38.4595 46.0283 38.7295 46.5683 39.4395 46.8383C40.3295 46.8583 41.2294 46.8883 42.1194 46.9083C41.3394 47.8283 40.4995 48.7083 39.7896 49.6883C37.1296 53.2883 35.7795 57.3283 35.7695 61.8083C35.7695 62.2883 35.7595 62.7583 35.7595 63.2383C26.0095 63.2383 16.2595 63.2483 6.50952 63.2283C5.20952 63.2283 3.95961 62.9583 2.84961 62.1883C1.52961 61.2683 0.869551 59.9883 0.539551 58.4783C0.529551 57.9783 0.519531 57.4783 0.519531 56.9783C0.519531 46.6983 0.519531 36.4083 0.519531 26.1283C0.519531 25.8383 0.54957 25.5483 0.55957 25.2583C0.89957 25.2483 1.2496 25.2383 1.5896 25.2383C23.1496 25.2383 44.7195 25.2383 66.2795 25.2383C66.5895 25.2383 66.9095 25.2783 67.2195 25.2983C67.2295 31.7683 67.2195 38.2483 67.2195 44.7183ZM6.87939 30.7183C6.21939 30.8983 5.95946 31.3883 5.94946 32.0183C5.92946 32.8883 5.92946 33.7583 5.94946 34.6283C5.95946 35.3683 6.28955 35.8783 7.03955 36.0583C8.03955 36.0683 9.04956 36.0982 10.0496 36.0782C10.8196 36.0682 11.3096 35.6183 11.3496 34.8683C11.3996 33.8683 11.3896 32.8583 11.3496 31.8583C11.3196 31.1683 10.9095 30.6983 10.2095 30.6783C9.09947 30.6383 7.98939 30.6983 6.87939 30.7183ZM6.87939 46.8383C7.98939 46.8583 9.09946 46.9083 10.1995 46.8783C10.8995 46.8583 11.3096 46.3883 11.3396 45.6983C11.3796 44.6983 11.3896 43.6883 11.3396 42.6883C11.2996 41.9283 10.8096 41.5083 10.0396 41.4983C9.03955 41.4883 8.02954 41.5082 7.02954 41.5182C6.25954 41.6782 5.95945 42.2083 5.93945 42.9383C5.92945 43.7783 5.92945 44.6183 5.93945 45.4683C5.94945 46.1183 6.19939 46.6283 6.87939 46.8383ZM28.6394 30.6983C27.9494 30.8683 27.6594 31.3383 27.6594 32.0183C27.6594 32.8883 27.6594 33.7483 27.6594 34.6183C27.6594 35.4083 27.9996 35.9083 28.7996 36.0483C29.7696 36.0583 30.7495 36.0883 31.7195 36.0683C32.5295 36.0483 33.0496 35.5383 33.0696 34.7283C33.0996 33.8083 33.0896 32.8883 33.0696 31.9583C33.0496 31.1883 32.6094 30.6783 31.8694 30.6583C30.7894 30.6383 29.7094 30.6883 28.6394 30.6983ZM61.1995 30.6983C60.4995 30.8483 60.1995 31.3083 60.1995 31.9883C60.1895 32.9083 60.1895 33.8183 60.1995 34.7383C60.2095 35.4983 60.6094 35.9383 61.3594 36.0583C62.3094 36.0683 63.2595 36.0882 64.2095 36.0782C65.0595 36.0682 65.5894 35.5583 65.6194 34.6983C65.6494 33.7983 65.6494 32.9083 65.6194 32.0083C65.5894 31.1883 65.1294 30.6883 64.3594 30.6683C63.3094 30.6383 62.2495 30.6783 61.1995 30.6983ZM17.9895 36.0583C18.9395 36.0683 19.8896 36.0882 20.8296 36.0782C21.6696 36.0682 22.1995 35.5583 22.2395 34.6983C22.2795 33.8083 22.2795 32.9083 22.2395 32.0183C22.2095 31.3283 21.8994 30.7283 21.1494 30.6983C19.9994 30.6483 18.8395 30.7183 17.6895 30.7383C17.0795 30.9383 16.8196 31.3783 16.8196 31.9883C16.8196 32.9083 16.8096 33.8283 16.8196 34.7483C16.8296 35.4983 17.2295 35.9483 17.9895 36.0583ZM50.3994 36.0483C51.3994 36.0583 52.3994 36.0883 53.3994 36.0683C54.1694 36.0583 54.6795 35.6383 54.7195 34.8883C54.7795 33.8683 54.7695 32.8383 54.7195 31.8083C54.6895 31.1583 54.2994 30.6883 53.6294 30.6683C52.4994 30.6383 51.3695 30.6883 50.2395 30.7083C49.5795 30.8883 49.3296 31.3883 49.3196 32.0083C49.2996 32.8783 49.2996 33.7383 49.3196 34.6083C49.3296 35.3483 49.6494 35.8683 50.3994 36.0483ZM28.6394 46.8483C29.6894 46.8583 30.7396 46.8983 31.7996 46.8783C32.5496 46.8683 33.0396 46.3883 33.0696 45.6483C33.0996 44.6783 33.0996 43.6983 33.0696 42.7283C33.0396 41.9983 32.5296 41.4983 31.7996 41.4883C30.7496 41.4683 29.6994 41.5082 28.6394 41.5182C27.9294 41.7183 27.6394 42.2083 27.6494 42.9283C27.6594 43.7683 27.6594 44.6083 27.6494 45.4483C27.6494 46.1583 27.9194 46.6583 28.6394 46.8483ZM17.8296 41.5083C17.1096 41.6883 16.8096 42.1783 16.8096 42.8883C16.8096 43.7583 16.8096 44.6183 16.8096 45.4883C16.8096 46.1983 17.0996 46.6983 17.8296 46.8583C18.8296 46.8683 19.8296 46.8983 20.8296 46.8883C21.6896 46.8783 22.1995 46.3983 22.2395 45.5283C22.2795 44.6383 22.2795 43.7383 22.2395 42.8483C22.1995 41.9783 21.6796 41.4883 20.8296 41.4883C19.8296 41.4783 18.8296 41.4983 17.8296 41.5083ZM39.4395 30.7083C38.7495 30.8883 38.4895 31.3883 38.4795 32.0583C38.4695 32.8983 38.4795 33.7382 38.4795 34.5782C38.4795 35.3482 38.8096 35.8783 39.5996 36.0483C40.5996 36.0583 41.5996 36.0883 42.5996 36.0683C43.3896 36.0483 43.8694 35.5582 43.8894 34.7682C43.9094 33.8182 43.9094 32.8683 43.8894 31.9283C43.8794 31.1883 43.4895 30.6983 42.7495 30.6683C41.6495 30.6383 40.5395 30.6983 39.4395 30.7083ZM7.03955 52.3282C6.28955 52.5082 5.95946 53.0183 5.94946 53.7583C5.93946 54.6283 5.92946 55.4983 5.94946 56.3583C5.96946 56.9783 6.20939 57.4783 6.87939 57.6483C8.00939 57.6683 9.13953 57.7383 10.2695 57.6983C10.9295 57.6783 11.3296 57.2083 11.3496 56.5483C11.3896 55.5183 11.4296 54.4783 11.3196 53.4683C11.2796 53.0983 10.8095 52.7783 10.5295 52.4283C10.4795 52.3983 10.4194 52.3783 10.3594 52.3483C9.24938 52.3483 8.14955 52.3382 7.03955 52.3282ZM32.1594 52.4183C32.0894 52.3883 32.0295 52.3582 31.9595 52.3282C30.8995 52.3282 29.8496 52.3183 28.7896 52.3183C27.9995 52.4783 27.6394 52.9683 27.6494 53.7583C27.6594 54.6283 27.6494 55.4883 27.6494 56.3583C27.6494 57.0383 27.9294 57.5083 28.6294 57.6783C29.7294 57.6983 30.8395 57.7683 31.9395 57.7183C32.6695 57.6883 33.0496 57.1483 33.0696 56.4283C33.0896 55.5283 33.0796 54.6283 33.0696 53.7383C33.0696 53.0883 32.8294 52.5983 32.1594 52.4183ZM21.3396 52.4283C21.2296 52.3883 21.1095 52.3583 20.9995 52.3183C19.9395 52.3283 18.8896 52.3383 17.8296 52.3383C17.1196 52.5283 16.7996 53.0083 16.8096 53.7183C16.8096 54.6083 16.8096 55.4983 16.8096 56.3983C16.8196 57.0083 17.0494 57.4583 17.6794 57.6483C18.8394 57.6683 19.9894 57.7483 21.1394 57.6983C21.8594 57.6683 22.1895 57.0983 22.2295 56.4483C22.2795 55.4983 22.3295 54.5383 22.1995 53.5983C22.1495 53.1783 21.6396 52.8183 21.3396 52.4283Z" fill="#EAF4FB"/>
<path d="M18.4507 13.8688C20.0007 14.8588 21.6508 14.5088 23.0708 12.8888C24.0408 12.8888 25.0107 12.8888 25.9907 12.8888C26.9907 12.8888 27.5408 12.4288 27.5308 11.6088C27.5208 10.9288 26.8407 10.3688 25.9907 10.3488C25.2007 10.3388 24.4106 10.3388 23.6306 10.3388C23.6306 8.96878 23.6206 7.59876 23.6206 6.22876C31.7406 6.22876 39.8607 6.22876 47.9707 6.22876C47.9707 6.28876 47.9607 6.33877 47.9607 6.39877C47.9307 7.49877 47.8906 8.60877 47.8806 9.70877C47.8806 10.1888 47.7107 10.3788 47.2307 10.3588C46.6507 10.3288 46.0707 10.3288 45.4907 10.3588C44.5507 10.3988 44.0508 10.8788 44.0508 11.6988C44.0508 12.4488 44.5708 12.8788 45.5008 12.8888C46.5008 12.8988 47.5108 12.8888 48.5108 12.8888C48.8108 13.1588 49.1107 13.4288 49.4107 13.6988C50.4507 14.7188 52.5607 14.5887 53.7007 13.4688C53.8907 13.2888 54.0607 13.0888 54.2307 12.8888C55.2607 12.8888 56.2908 12.8988 57.3108 12.8688C57.5808 12.8588 57.8906 12.8088 58.1206 12.6688C58.6406 12.3588 58.7606 11.8488 58.6206 11.2888C58.4506 10.6288 57.9008 10.3888 57.3008 10.3488C56.4908 10.2988 55.6709 10.3288 54.8509 10.3288C54.8509 8.95877 54.8508 7.58875 54.8408 6.21875C57.3808 6.22875 59.9307 6.23878 62.4707 6.24878C62.5107 6.27878 62.5609 6.31877 62.6009 6.32877C65.5609 6.93877 67.2207 8.95877 67.2207 11.9588C67.2207 13.8388 67.1807 15.7188 67.2407 17.5888C67.2607 18.3788 67.0607 18.6188 66.2407 18.6188C44.3407 18.5988 22.4408 18.5988 0.530786 18.5988C0.550786 16.0088 0.38066 13.4088 0.65066 10.8488C0.95066 8.01875 3.24085 6.24877 6.10085 6.23877C9.64085 6.21877 13.1807 6.23877 16.7307 6.23877C16.7307 7.60877 16.7307 8.97875 16.7207 10.3488C15.7707 10.3788 14.8106 10.3388 13.8706 10.4588C13.1306 10.5488 12.7507 11.1888 12.9107 11.9288C13.0407 12.5688 13.4607 12.9188 14.1507 12.9088C15.2107 12.8988 16.2708 12.9088 17.3308 12.9188C17.7008 13.2288 18.0707 13.5488 18.4507 13.8688Z" fill="#4FC4D8"/>
<path d="M67.2307 25.2889C66.9207 25.2689 66.6008 25.2289 66.2908 25.2289C44.7308 25.2289 23.1608 25.2289 1.60083 25.2289C1.26083 25.2289 0.910801 25.239 0.570801 25.249C0.560801 23.829 0.560781 22.409 0.550781 20.999C22.4808 20.999 44.4008 20.999 66.3308 20.999C66.4408 20.999 66.5406 21.009 66.6506 20.999C67.1006 20.959 67.2607 21.1689 67.2507 21.6089C67.2307 22.5389 67.2807 23.4589 67.2307 24.3889C67.2007 24.9889 67.4307 25.1689 68.0107 25.1489C69.0107 25.1089 70.0208 25.1389 71.0208 25.1389C71.0407 25.1889 71.0407 25.2289 71.0208 25.2789C69.7508 25.2789 68.4907 25.2889 67.2307 25.2889Z" fill="#4FC4D8"/>
<path d="M71.0208 25.128C70.0107 25.128 69.0107 25.098 68.0107 25.138C67.4307 25.158 67.2007 24.978 67.2307 24.378C67.2707 23.458 67.2307 22.528 67.2507 21.598C67.2607 21.158 67.1006 20.948 66.6506 20.988C66.5506 20.998 66.4408 20.988 66.3308 20.988C44.4008 20.988 22.4808 20.988 0.550781 20.988C0.550781 20.188 0.550781 19.398 0.550781 18.598C22.4508 18.598 44.3507 18.598 66.2607 18.618C67.0807 18.618 67.2907 18.378 67.2607 17.588C67.2007 15.708 67.2407 13.838 67.2407 11.958C67.2407 8.96804 65.5706 6.93803 62.6206 6.32803C62.5706 6.31803 62.5307 6.27805 62.4907 6.24805C63.9107 6.28805 65.3607 6.16803 66.7507 6.38803C69.1307 6.76803 71.0008 8.91804 71.0308 11.308C71.0808 15.928 71.0208 20.528 71.0208 25.128Z" fill="#00A4C4"/>
<path d="M0.540224 58.4785C0.870224 59.9885 1.53028 61.2685 2.85028 62.1885C3.97028 62.9685 5.2102 63.2285 6.5102 63.2285C16.2602 63.2485 26.0102 63.2385 35.7602 63.2385C36.0702 64.9685 36.3801 66.6985 36.7101 68.4885C36.4301 68.4885 36.1202 68.4885 35.8002 68.4885C25.8302 68.4885 15.8701 68.4885 5.90009 68.4885C5.74009 68.4885 5.59012 68.5085 5.43012 68.5185C2.78012 68.3085 0.630215 66.1285 0.530215 63.4485C0.470215 61.7885 0.530224 60.1285 0.540224 58.4785Z" fill="#D4DBEF"/>
<path d="M16.7305 10.3375C16.7305 8.96752 16.7305 7.59751 16.7405 6.22751C16.7705 5.44751 16.7806 4.66751 16.8406 3.88751C16.9206 2.83751 17.4005 2.0075 18.2905 1.4375C19.4805 2.1275 19.8604 3.27752 19.8704 4.51752C19.8904 6.77752 19.7905 9.04753 19.7505 11.3075C19.7305 12.3775 19.0604 13.0875 18.4504 13.8475C18.0804 13.5275 17.7106 13.2075 17.3406 12.8875C17.1306 12.0475 16.9305 11.1975 16.7305 10.3375Z" fill="#E9EFF6"/>
<path d="M67.231 25.2876C68.491 25.2776 69.761 25.2776 71.021 25.2676C71.031 28.7576 71.0511 32.2476 71.0511 35.7376C71.0511 39.7776 71.0411 43.8276 71.0311 47.8676C69.7611 46.8176 68.501 45.7676 67.231 44.7176C67.221 38.2476 67.231 31.7676 67.231 25.2876Z" fill="#D4DBEF"/>
<path d="M62.8394 51.2785C60.7394 49.1285 58.2093 47.8285 55.2993 47.1985C55.1293 47.1585 54.9794 47.0585 54.8294 46.9785C54.6994 46.9985 54.5692 47.0085 54.4392 47.0285C54.0492 47.0785 53.6493 47.1185 53.2593 47.1885C43.8293 48.9385 38.4294 59.4185 42.5794 68.0585C45.0694 73.2385 49.2793 76.0685 54.9893 76.6885C55.4593 76.5085 55.9192 76.2785 56.4092 76.1485C61.9992 74.6185 66.3194 69.6785 67.0794 63.9185C67.7194 59.0185 66.2994 54.8285 62.8394 51.2785ZM62.7693 63.0385C61.3693 63.0585 59.9694 63.0285 58.5694 63.0085C57.8994 64.0885 56.9492 64.6885 55.6592 64.4785C54.5892 64.3085 53.8593 63.6585 53.5093 62.6185C53.1093 61.3985 53.5492 60.3385 54.8892 59.3185C54.8792 57.0485 54.8592 54.7785 54.8692 52.5085C54.8692 51.6485 55.3393 51.1385 56.0593 51.1185C56.8293 51.0985 57.3194 51.5985 57.3294 52.5085C57.3394 54.7785 57.3193 57.0485 57.3093 59.3185C57.7293 59.7485 58.1494 60.1785 58.5694 60.5985C59.9694 60.5885 61.3693 60.5585 62.7693 60.5785C63.5793 60.5885 64.0594 61.0685 64.0794 61.7685C64.0994 62.5085 63.6093 63.0285 62.7693 63.0385Z" fill="#EAF4FB"/>
<path d="M54.9902 76.6889C55.4602 76.5089 55.9202 76.2789 56.4102 76.1389C62.0002 74.6089 66.3203 69.6789 67.0803 63.9089C67.7203 59.0189 66.3003 54.8189 62.8403 51.2789C60.7403 49.1289 58.2103 47.8289 55.3003 47.1989C55.1303 47.1589 54.9803 47.0589 54.8203 46.9789C57.2603 46.6489 59.6303 47.0489 61.8503 48.0289C66.7703 50.1989 69.8503 53.9489 70.8103 59.2389C72.2703 67.2589 66.9101 74.8589 59.1501 76.3989C57.8001 76.6689 56.3802 76.5989 54.9902 76.6889Z" fill="#D4DBEF"/>
<path d="M39.5894 41.5091C40.5894 41.4991 41.5793 41.4791 42.5793 41.4891C43.3593 41.4991 43.8492 41.989 43.8792 42.769C43.9092 43.659 43.8992 44.5491 43.9092 45.4491C43.3192 45.9391 42.7192 46.429 42.1292 46.919C41.2392 46.899 40.3392 46.869 39.4492 46.849C39.6492 46.579 40.0293 46.299 40.0193 46.039C39.9593 44.509 40.4894 42.9391 39.5894 41.5091Z" fill="#288ECD"/>
<path d="M49.4019 13.709C49.1019 13.439 48.802 13.169 48.502 12.899C48.332 12.089 48.062 11.299 48.002 10.479C47.912 9.12897 47.9519 7.75899 47.9419 6.39899C47.9419 6.33899 47.9519 6.28897 47.9519 6.22897C47.9619 5.56897 47.992 4.91897 47.992 4.25897C47.992 3.06897 48.4519 2.12898 49.4419 1.45898C50.5819 2.00898 50.962 3.06896 51.002 4.18896C51.082 6.42896 51.092 8.68899 51.002 10.929C50.962 12.069 50.6419 13.189 49.4019 13.709Z" fill="#EAF4FB"/>
<path d="M54.8506 10.3488C55.6706 10.3488 56.4905 10.3188 57.3005 10.3688C57.9005 10.4088 58.4504 10.6388 58.6204 11.3088C58.7704 11.8688 58.6404 12.3788 58.1204 12.6888C57.8904 12.8288 57.5805 12.8888 57.3105 12.8888C56.2805 12.9188 55.2505 12.9088 54.2305 12.9088C54.4305 12.0588 54.6406 11.1988 54.8506 10.3488Z" fill="#00A4C4"/>
<path d="M23.6106 10.3477C24.4006 10.3477 25.1907 10.3477 25.9707 10.3577C26.8207 10.3777 27.5007 10.9377 27.5107 11.6177C27.5207 12.4277 26.9807 12.8877 25.9707 12.8977C25.0007 12.8977 24.0308 12.8977 23.0508 12.8977C23.2408 12.0477 23.4306 11.1977 23.6106 10.3477Z" fill="#00A4C4"/>
<path d="M17.8416 52.3383C18.9016 52.3283 19.9515 52.3184 21.0115 52.3184C21.1215 52.3584 21.2416 52.3883 21.3516 52.4283C21.6516 52.8183 22.1514 53.1783 22.2114 53.5983C22.3414 54.5283 22.2915 55.4984 22.2415 56.4484C22.2115 57.1084 21.8714 57.6784 21.1514 57.6984C20.0014 57.7384 18.8414 57.6683 17.6914 57.6483C17.9414 57.2983 18.3914 56.9483 18.4014 56.5883C18.4114 55.1583 18.8616 53.6383 17.8416 52.3383Z" fill="#288ECD"/>
<path d="M28.8008 52.3184C29.8608 52.3184 30.9107 52.3283 31.9707 52.3283C32.0407 52.3583 32.1007 52.3883 32.1707 52.4183C32.8307 52.6083 33.0708 53.0883 33.0808 53.7283C33.0908 54.6283 33.1008 55.5283 33.0808 56.4183C33.0608 57.1383 32.6907 57.6783 31.9507 57.7083C30.8507 57.7583 29.7406 57.6883 28.6406 57.6683C29.1606 57.1483 29.3208 56.5383 29.2808 55.8083C29.2208 54.6283 29.4408 53.4184 28.8008 52.3184Z" fill="#288ECD"/>
<path d="M10.5291 52.4379C10.7991 52.7879 11.2791 53.1079 11.3191 53.4779C11.4291 54.4979 11.3891 55.5279 11.3491 56.5579C11.3291 57.2179 10.919 57.6879 10.269 57.7079C9.13904 57.7479 8.00891 57.6779 6.87891 57.6579C7.12891 57.2779 7.58912 56.8979 7.59912 56.5079C7.62912 55.0979 7.99906 53.6179 7.03906 52.3379C8.14906 52.3479 9.2589 52.3579 10.3689 52.3579C10.4189 52.3779 10.4691 52.4079 10.5291 52.4379Z" fill="#288ECD"/>
<path d="M39.4414 30.7078C40.5414 30.6878 41.6515 30.6278 42.7515 30.6678C43.4915 30.6978 43.8814 31.1878 43.8914 31.9278C43.9114 32.8778 43.9114 33.8277 43.8914 34.7677C43.8714 35.5577 43.3916 36.0478 42.6016 36.0678C41.6016 36.0878 40.6016 36.0578 39.6016 36.0478C39.7616 35.3778 39.9615 34.7177 40.0615 34.0377C40.1315 33.5277 40.0315 32.9877 40.0815 32.4677C40.1515 31.7677 39.9814 31.1778 39.4414 30.7078Z" fill="#288ECD"/>
<path d="M17.832 41.5085C18.832 41.4985 19.832 41.4785 20.832 41.4785C21.682 41.4885 22.2019 41.9785 22.2419 42.8385C22.2819 43.7285 22.2819 44.6285 22.2419 45.5185C22.2019 46.3885 21.702 46.8685 20.832 46.8785C19.832 46.8885 18.832 46.8585 17.832 46.8485C18.032 46.4585 18.4119 46.0585 18.4119 45.6685C18.4119 44.2685 18.842 42.7785 17.832 41.5085Z" fill="#288ECD"/>
<path d="M28.6406 41.5183C29.6906 41.5083 30.7508 41.4783 31.8008 41.4883C32.5308 41.4983 33.0408 41.9983 33.0708 42.7283C33.1008 43.6983 33.1008 44.6783 33.0708 45.6483C33.0408 46.3883 32.5508 46.8684 31.8008 46.8784C30.7508 46.8984 29.7006 46.8583 28.6406 46.8483C29.1506 46.3583 29.3308 45.7583 29.2808 45.0583C29.2408 44.4783 29.2408 43.8884 29.2808 43.3184C29.3308 42.6084 29.1506 42.0083 28.6406 41.5183Z" fill="#288ECD"/>
<path d="M50.25 30.7173C51.38 30.6973 52.5099 30.6473 53.6399 30.6773C54.3099 30.6973 54.7 31.1673 54.73 31.8173C54.78 32.8373 54.79 33.8673 54.73 34.8973C54.68 35.6473 54.1799 36.0673 53.4099 36.0773C52.4099 36.0973 51.4099 36.0673 50.4099 36.0573C50.6199 35.3473 50.88 34.6473 51.01 33.9273C51.1 33.4173 51.13 32.8573 51 32.3573C50.85 31.7773 50.51 31.2573 50.25 30.7173Z" fill="#288ECD"/>
<path d="M17.6914 30.7276C18.8414 30.7076 20.0014 30.6376 21.1514 30.6876C21.9014 30.7176 22.2115 31.3176 22.2415 32.0076C22.2815 32.8976 22.2815 33.7976 22.2415 34.6876C22.2015 35.5476 21.6815 36.0476 20.8315 36.0676C19.8815 36.0876 18.9315 36.0576 17.9915 36.0476C18.0215 35.8976 18.0316 35.7376 18.0916 35.5976C18.7716 34.2276 18.4815 32.8076 18.2815 31.3976C18.2515 31.1576 17.8914 30.9576 17.6914 30.7276Z" fill="#288ECD"/>
<path d="M61.1992 30.6978C62.2492 30.6778 63.3091 30.6378 64.3591 30.6578C65.1291 30.6778 65.5891 31.1778 65.6191 31.9978C65.6491 32.8978 65.6491 33.7878 65.6191 34.6878C65.5891 35.5478 65.0592 36.0578 64.2092 36.0678C63.2592 36.0778 62.3091 36.0578 61.3591 36.0478C61.9791 34.9478 61.7794 33.7278 61.8394 32.5478C61.8794 31.8278 61.7092 31.2178 61.1992 30.6978Z" fill="#288ECD"/>
<path d="M28.6406 30.6974C29.7206 30.6774 30.8006 30.6274 31.8706 30.6674C32.6106 30.6874 33.0508 31.1974 33.0708 31.9674C33.0908 32.8874 33.0908 33.8074 33.0708 34.7374C33.0508 35.5474 32.5307 36.0574 31.7207 36.0774C30.7507 36.0974 29.7708 36.0674 28.8008 36.0574C28.9608 35.3874 29.1607 34.7274 29.2607 34.0474C29.3307 33.5574 29.2408 33.0474 29.2808 32.5574C29.3408 31.8274 29.1606 31.2174 28.6406 30.6974Z" fill="#288ECD"/>
<path d="M7.02905 41.5091C8.02905 41.4991 9.03906 41.4791 10.0391 41.4891C10.8091 41.4991 11.3091 41.9191 11.3391 42.6791C11.3891 43.6791 11.3791 44.6891 11.3391 45.6891C11.3091 46.3791 10.899 46.8491 10.199 46.8691C9.08897 46.8991 7.97891 46.849 6.87891 46.829C7.13891 46.409 7.59889 45.999 7.60889 45.579C7.61889 44.209 8.01905 42.7491 7.02905 41.5091Z" fill="#288ECD"/>
<path d="M6.87891 30.7184C7.98891 30.6984 9.09897 30.6384 10.199 30.6684C10.909 30.6884 11.3191 31.1484 11.3391 31.8484C11.3791 32.8484 11.3891 33.8584 11.3391 34.8584C11.2991 35.6184 10.8091 36.0584 10.0391 36.0684C9.03906 36.0884 8.02905 36.0584 7.02905 36.0484C7.57905 35.3284 7.74894 34.5084 7.65894 33.6084C7.61894 33.1884 7.74891 32.7384 7.62891 32.3484C7.45891 31.7884 7.13891 31.2584 6.87891 30.7184Z" fill="#288ECD"/>
<path d="M6.88118 30.7188C7.14118 31.2588 7.46118 31.7888 7.63118 32.3588C7.75118 32.7488 7.62121 33.1988 7.66121 33.6188C7.75121 34.5088 7.58132 35.3288 7.03132 36.0588C6.28132 35.8788 5.95123 35.3688 5.94123 34.6288C5.93123 33.7588 5.92123 32.8888 5.94123 32.0188C5.96123 31.3888 6.22118 30.8988 6.88118 30.7188Z" fill="#225886"/>
<path d="M7.03118 41.5078C8.02118 42.7478 7.62102 44.2178 7.61102 45.5878C7.61102 46.0078 7.14104 46.4178 6.88104 46.8378C6.20104 46.6278 5.95109 46.1178 5.94109 45.4578C5.93109 44.6178 5.93109 43.7778 5.94109 42.9278C5.96109 42.1978 6.26118 41.6678 7.03118 41.5078Z" fill="#225886"/>
<path d="M50.2518 30.7188C50.5118 31.2588 50.8518 31.7788 51.0018 32.3488C51.1318 32.8388 51.1018 33.4088 51.0118 33.9188C50.8718 34.6388 50.6117 35.3388 50.4117 36.0488C49.6617 35.8688 49.3419 35.3488 49.3319 34.6188C49.3219 33.7488 49.3119 32.8888 49.3319 32.0188C49.3419 31.3988 49.5918 30.8988 50.2518 30.7188Z" fill="#225886"/>
<path d="M7.03871 52.3281C8.00871 53.6081 7.62877 55.0882 7.59877 56.4982C7.58877 56.8882 7.12855 57.2681 6.87855 57.6481C6.20855 57.4781 5.96862 56.9782 5.94862 56.3582C5.91862 55.4882 5.92862 54.6182 5.94862 53.7582C5.94862 53.0182 6.27871 52.5081 7.03871 52.3281Z" fill="#225886"/>
<path d="M28.6401 30.6973C29.1601 31.2073 29.3403 31.8273 29.2803 32.5473C29.2403 33.0373 29.3303 33.5473 29.2603 34.0373C29.1603 34.7173 28.9603 35.3773 28.8003 36.0473C28.0003 35.9073 27.6602 35.3973 27.6602 34.6173C27.6702 33.7473 27.6602 32.8873 27.6602 32.0173C27.6602 31.3373 27.9501 30.8773 28.6401 30.6973Z" fill="#225886"/>
<path d="M28.6406 41.5176C29.1506 42.0076 29.3308 42.6076 29.2708 43.3176C29.2308 43.8976 29.2308 44.4876 29.2708 45.0576C29.3208 45.7676 29.1406 46.3576 28.6306 46.8476C27.9106 46.6576 27.6406 46.1576 27.6406 45.4476C27.6506 44.6076 27.6506 43.7676 27.6406 42.9276C27.6406 42.2076 27.9306 41.7176 28.6406 41.5176Z" fill="#225886"/>
<path d="M61.1989 30.6973C61.7089 31.2173 61.879 31.8273 61.839 32.5573C61.779 33.7373 61.9788 34.9573 61.3588 36.0573C60.6088 35.9373 60.2089 35.4973 60.1989 34.7373C60.1889 33.8173 60.1889 32.9073 60.1989 31.9873C60.1989 31.3073 60.4989 30.8473 61.1989 30.6973Z" fill="#225886"/>
<path d="M28.8005 52.3184C29.4505 53.4184 29.2205 54.6283 29.2805 55.8083C29.3205 56.5383 29.1503 57.1483 28.6403 57.6683C27.9403 57.5083 27.6604 57.0383 27.6604 56.3483C27.6604 55.4783 27.6704 54.6184 27.6604 53.7484C27.6504 52.9684 28.0105 52.4784 28.8005 52.3184Z" fill="#225886"/>
<path d="M39.441 30.709C39.981 31.179 40.1511 31.759 40.0811 32.469C40.0311 32.989 40.1311 33.529 40.0611 34.039C39.9611 34.719 39.7611 35.379 39.6011 36.049C38.8111 35.879 38.481 35.3489 38.481 34.5789C38.481 33.7389 38.471 32.899 38.481 32.059C38.491 31.389 38.751 30.899 39.441 30.709Z" fill="#225886"/>
<path d="M17.6916 30.7285C17.9016 30.9585 18.2517 31.1585 18.2917 31.4085C18.4917 32.8085 18.7817 34.2385 18.1017 35.6085C18.0317 35.7385 18.0316 35.9085 18.0016 36.0585C17.2416 35.9485 16.8417 35.4985 16.8317 34.7385C16.8217 33.8185 16.8217 32.8985 16.8317 31.9785C16.8217 31.3685 17.0816 30.9285 17.6916 30.7285Z" fill="#225886"/>
<path d="M17.8392 52.3379C18.8692 53.6379 18.409 55.1479 18.389 56.5779C18.379 56.9379 17.929 57.2879 17.679 57.6379C17.059 57.4579 16.8191 56.9979 16.8091 56.3879C16.7991 55.4979 16.8091 54.6079 16.8091 53.7079C16.8091 53.0079 17.1292 52.5279 17.8392 52.3379Z" fill="#225886"/>
<path d="M17.8325 41.5078C18.8425 42.7778 18.4124 44.2678 18.4124 45.6778C18.4124 46.0678 18.0325 46.4678 17.8325 46.8578C17.1025 46.6878 16.8125 46.1978 16.8125 45.4878C16.8125 44.6178 16.8125 43.7578 16.8125 42.8878C16.8125 42.1778 17.1225 41.6978 17.8325 41.5078Z" fill="#225886"/>
<path d="M39.5908 41.5078C40.4908 42.9378 39.9508 44.5178 40.0208 46.0278C40.0308 46.2878 39.6507 46.5678 39.4507 46.8378C38.7407 46.5678 38.4707 46.0278 38.4807 45.2978C38.4907 44.5578 38.4907 43.8278 38.4807 43.0878C38.4707 42.2878 38.7808 41.7278 39.5908 41.5078Z" fill="#225886"/>
<path d="M21.3401 52.4283C21.2301 52.3883 21.11 52.3584 21 52.3184C21.12 52.3584 21.2301 52.3883 21.3401 52.4283Z" fill="#225886"/>
<path d="M10.5295 52.4374C10.4795 52.4074 10.4194 52.3874 10.3594 52.3574C10.4194 52.3774 10.4695 52.4074 10.5295 52.4374Z" fill="#225886"/>
<path d="M32.1609 52.4182C32.0909 52.3882 32.0309 52.3581 31.9609 52.3281C32.0309 52.3581 32.1009 52.3882 32.1609 52.4182Z" fill="#225886"/>
<path d="M47.939 6.39844C47.949 7.75844 47.909 9.11842 47.999 10.4784C48.059 11.2884 48.329 12.0884 48.499 12.8984C47.499 12.8984 46.489 12.9084 45.489 12.8984C44.559 12.8884 44.0391 12.4584 44.0391 11.7084C44.0391 10.8884 44.529 10.4084 45.479 10.3684C46.059 10.3384 46.639 10.3384 47.219 10.3684C47.699 10.3884 47.8689 10.1984 47.8689 9.71841C47.8689 8.60841 47.909 7.50844 47.939 6.39844Z" fill="#00A4C4"/>
<path d="M16.7297 10.3379C16.9297 11.1879 17.1298 12.0479 17.3398 12.8979C16.2798 12.8979 15.2196 12.8779 14.1596 12.8879C13.4696 12.8979 13.0496 12.5479 12.9196 11.9079C12.7696 11.1779 13.1396 10.5379 13.8796 10.4379C14.8196 10.3379 15.7797 10.3679 16.7297 10.3379Z" fill="#00A4C4"/>
<path d="M57.3094 59.3184C57.7294 59.7484 58.1495 60.1783 58.5695 60.5983C58.8995 61.3983 58.8995 62.1984 58.5695 63.0084C57.8995 64.0884 56.9593 64.6883 55.6593 64.4783C54.5893 64.3083 53.8594 63.6583 53.5094 62.6183C53.1094 61.3983 53.5493 60.3384 54.8793 59.3184C55.6993 59.3184 56.4994 59.3184 57.3094 59.3184Z" fill="#226CA3"/>
<path d="M57.3101 59.3178C56.5101 59.3178 55.6999 59.3178 54.8899 59.3178C54.8799 57.0478 54.8599 54.7778 54.8699 52.5078C54.8699 51.6478 55.3401 51.1378 56.0601 51.1178C56.8301 51.0978 57.3201 51.5978 57.3301 52.5078C57.3401 54.7878 57.3201 57.0578 57.3101 59.3178Z" fill="#225886"/>
<path d="M58.5703 63.009C58.9003 62.209 58.9003 61.409 58.5703 60.599C59.9703 60.589 61.3703 60.559 62.7703 60.579C63.5803 60.589 64.0603 61.069 64.0803 61.769C64.1003 62.509 63.6103 63.019 62.7703 63.039C61.3703 63.059 59.9703 63.019 58.5703 63.009Z" fill="#225886"/>
</svg>
