<svg width="18" height="18" viewBox="0 0 18 18" fill="none" xmlns="http://www.w3.org/2000/svg">
<path d="M17.5579 6.33869L15.3865 4.95848L15.2563 2.41297L12.669 2.28485L11.2663 0.148438L8.96468 1.30549L6.65878 0.148438L5.25604 2.28485L2.66878 2.41297L2.53855 4.95435L0.367188 6.33456L1.54741 8.59907L0.367188 10.8677L2.53855 12.2479L2.67309 14.7934L5.25604 14.9174L6.65878 17.0538L8.96037 15.8927L11.2663 17.0538L12.669 14.9174L15.2563 14.7893L15.3822 12.2438L17.5536 10.8636L16.3776 8.59907L17.5579 6.33869ZM7.89355 11.5248L5.23923 8.91313L6.10855 8.06187L7.91468 9.8305L11.8249 6.09901L12.6817 6.96679L7.89355 11.5248Z" fill="#226CA3"/>
</svg>
